<?xml version="1.0" encoding="utf-8"?>
<!-- Generator: Adobe Illustrator 22.1.0, SVG Export Plug-In . SVG Version: 6.00 Build 0)  -->
<svg version="1.1" id="Layer_1" xmlns="http://www.w3.org/2000/svg" xmlns:xlink="http://www.w3.org/1999/xlink" x="0px" y="0px"
	 viewBox="0 0 144 144" style="enable-background:new 0 0 144 144;" xml:space="preserve">
<style type="text/css">
	.st0{filter:url(#Adobe_OpacityMaskFilter);}
	.st1{fill:url(#SVGID_2_);}
	.st2{mask:url(#SVGID_1_);}
	.st3{fill:#C9B85F;}
	.st4{fill:url(#SVGID_3_);}
	.st5{fill:url(#SVGID_4_);}
	.st6{opacity:0.8;fill:#FFFFFF;}
	.st7{fill:url(#SVGID_5_);}
	.st8{fill:url(#SVGID_6_);}
	.st9{fill:#FFFFFF;}
	.st10{opacity:0.1;}
	.st11{fill:#8F8F8F;}
	.st12{fill:url(#SVGID_9_);}
	.st13{fill:#CCA674;}
	.st14{fill:url(#SVGID_10_);}
	.st15{fill:url(#SVGID_11_);}
	.st16{opacity:0.4;fill:url(#SVGID_12_);}
	.st17{opacity:0.4;fill:url(#SVGID_13_);}
	.st18{opacity:0.4;fill:url(#SVGID_14_);}
	.st19{opacity:0.4;fill:url(#SVGID_15_);}
	.st20{opacity:0.3;fill:url(#SVGID_16_);}
	.st21{fill:url(#SVGID_17_);}
	.st22{fill:url(#SVGID_18_);}
	.st23{fill:url(#SVGID_19_);}
	.st24{fill:url(#SVGID_20_);}
	.st25{fill:url(#SVGID_21_);}
	.st26{fill:url(#SVGID_22_);}
	.st27{fill:url(#SVGID_23_);}
	.st28{fill:#8FC724;}
	.st29{fill:url(#SVGID_24_);}
	.st30{fill:url(#SVGID_25_);}
	.st31{fill:url(#SVGID_26_);}
	.st32{fill:url(#SVGID_27_);}
	.st33{fill:url(#SVGID_28_);}
	.st34{fill:url(#SVGID_29_);}
	.st35{fill:#2E6B03;}
	.st36{fill:url(#SVGID_30_);}
	.st37{fill:url(#SVGID_31_);}
	.st38{fill:url(#SVGID_32_);}
	.st39{fill:url(#SVGID_33_);}
	.st40{fill:url(#SVGID_34_);}
	.st41{fill:url(#SVGID_35_);}
	.st42{fill:url(#SVGID_36_);}
	.st43{fill:url(#SVGID_37_);}
	.st44{fill:url(#SVGID_38_);}
	.st45{fill:url(#SVGID_39_);}
	.st46{fill:url(#SVGID_40_);}
	.st47{fill:url(#SVGID_41_);}
	.st48{fill:url(#SVGID_42_);}
	.st49{fill:url(#SVGID_43_);}
	.st50{fill:#940014;}
	.st51{fill:#FFB7B0;}
	.st52{fill:#FF7869;}
	.st53{fill:#5B8F0B;}
	.st54{fill:url(#SVGID_44_);}
	.st55{fill:#7D6647;}
	.st56{fill:#A8A8A8;}
	.st57{fill:url(#SVGID_45_);}
	.st58{fill:#8B8F90;}
</style>
<g>
	<g>
		<defs>
			<filter id="Adobe_OpacityMaskFilter" filterUnits="userSpaceOnUse" x="29.8" y="22.9" width="98.6" height="98.6">
				<feColorMatrix  type="matrix" values="1 0 0 0 0  0 1 0 0 0  0 0 1 0 0  0 0 0 1 0"/>
			</filter>
		</defs>
		<mask maskUnits="userSpaceOnUse" x="29.8" y="22.9" width="98.6" height="98.6" id="SVGID_1_">
			<g class="st0">
				<radialGradient id="SVGID_2_" cx="79.131" cy="72.2112" r="50.126" gradientUnits="userSpaceOnUse">
					<stop  offset="0" style="stop-color:#FFFFFF"/>
					<stop  offset="8.943852e-02" style="stop-color:#F2F2F2"/>
					<stop  offset="0.2569" style="stop-color:#CECECE"/>
					<stop  offset="0.4843" style="stop-color:#949494"/>
					<stop  offset="0.7596" style="stop-color:#464646"/>
					<stop  offset="0.9862" style="stop-color:#000000"/>
				</radialGradient>
				<path class="st1" d="M129.3,72.2c0,27.7-22.4,50.1-50.1,50.1C51.4,122.3,29,99.9,29,72.2c0-27.7,22.4-50.1,50.1-50.1
					C106.8,22.1,129.3,44.5,129.3,72.2z"/>
			</g>
		</mask>
		<path class="st2" d="M128.4,72.2c0,27.2-22.1,49.3-49.3,49.3c-27.2,0-49.3-22.1-49.3-49.3c0-27.2,22.1-49.3,49.3-49.3
			C106.4,22.9,128.4,45,128.4,72.2z"/>
		<g>
			<path class="st3" d="M118.4,69.4c0,25.4-20.6,46-46,46c-25.4,0-46-20.6-46-46c0-25.4,20.6-46,46-46
				C97.8,23.3,118.4,44,118.4,69.4z"/>
			<linearGradient id="SVGID_3_" gradientUnits="userSpaceOnUse" x1="29.7433" y1="3.1555" x2="75.1744" y2="73.7534">
				<stop  offset="0" style="stop-color:#DBD6D1"/>
				<stop  offset="1" style="stop-color:#E3E3E3"/>
			</linearGradient>
			<path class="st4" d="M117.4,69.4c0,24.9-20.1,45-45,45c-24.9,0-45-20.1-45-45c0-24.9,20.1-45,45-45
				C97.2,24.4,117.4,44.5,117.4,69.4z"/>
			<linearGradient id="SVGID_4_" gradientUnits="userSpaceOnUse" x1="58.7649" y1="45.6457" x2="80.021" y2="82.7537">
				<stop  offset="0" style="stop-color:#DBCFC2"/>
				<stop  offset="0.5404" style="stop-color:#EDE8E1"/>
				<stop  offset="1" style="stop-color:#FFFFFF"/>
			</linearGradient>
			<path class="st5" d="M105.4,69.4c0,18.3-14.8,33.1-33.1,33.1c-18.3,0-33.1-14.8-33.1-33.1c0-18.3,14.8-33.1,33.1-33.1
				C90.6,36.3,105.4,51.1,105.4,69.4z"/>
			<path class="st6" d="M109.1,59.5c3.2-1,4.3-2.8,4.4-4.7c-5.9-17-22.1-29.2-41.1-29.2c-24,0-43.5,19.5-43.5,43.5
				c0,7.4,1.9,14.4,5.1,20.5c4.4,2.5,15-4.9,31.6-14C83.7,65.6,103.4,61.3,109.1,59.5z"/>
			<linearGradient id="SVGID_5_" gradientUnits="userSpaceOnUse" x1="58.7649" y1="45.1555" x2="80.021" y2="82.2635">
				<stop  offset="0" style="stop-color:#D6CFC7"/>
				<stop  offset="0.5846" style="stop-color:#EDEAE6"/>
				<stop  offset="1" style="stop-color:#FFFFFF"/>
			</linearGradient>
			<path class="st7" d="M105.4,68.9c0,18.3-14.8,33.1-33.1,33.1c-18.3,0-33.1-14.8-33.1-33.1c0-18.3,14.8-33.1,33.1-33.1
				C90.6,35.8,105.4,50.6,105.4,68.9z"/>
			<linearGradient id="SVGID_6_" gradientUnits="userSpaceOnUse" x1="21.1206" y1="18.1422" x2="87.3119" y2="84.3335">
				<stop  offset="0" style="stop-color:#DBD6D1"/>
				<stop  offset="0.8346" style="stop-color:#F4F3F0"/>
				<stop  offset="1" style="stop-color:#FAF9F7"/>
			</linearGradient>
			<path class="st8" d="M101.8,69.4c0,16.3-13.2,29.5-29.5,29.5c-16.3,0-29.5-13.2-29.5-29.5c0-16.3,13.2-29.5,29.5-29.5
				C88.6,39.9,101.8,53.1,101.8,69.4z"/>
			<path class="st9" d="M96.2,62.9c2.1-0.7,2.8-1.8,2.9-3.1c-3.9-11.1-14.4-19-26.8-19c-15.7,0-28.4,12.7-28.4,28.4
				c0,4.8,1.2,9.4,3.3,13.3c2.8,1.6,9.8-3.2,20.6-9.1C79.6,66.9,92.5,64.1,96.2,62.9z"/>
		</g>
		<g>
			<defs>
				<path id="SVGID_7_" d="M72.4,23.3c-25.4,0-46,20.6-46,46c0,25.4,20.6,46,46,46c25.4,0,46-20.6,46-46
					C118.4,44,97.8,23.3,72.4,23.3z"/>
			</defs>
			<clipPath id="SVGID_8_">
				<use xlink:href="#SVGID_7_"  style="overflow:visible;"/>
			</clipPath>
		</g>
	</g>
	<path class="st10" d="M30,54.3l8.7,15.3c0,0-2,10.7,13,27.7s13.8,16.5,13.8,16.5l-12.9-3.9c0,0-13.1-27.3-16.1-31.6
		c-3-4.3-9-10.6-9-10.6S28.1,58,30,54.3z"/>
	<path class="st10" d="M40.4,42c0,0-6.2,1-4.7,7.7S61.2,113,61.2,113s8.1,2,11.2,1.4c0,0,34.3-7.4,43.8-55.1L40.4,42z"/>
	<g>
		<path class="st11" d="M71.2,109.7c10.9-4.2,20.8-11.3,28.6-21.2c0,0,0.1-0.1,0.1-0.2c7.7-9.8,12.8-21.1,14.3-32.7
			c0.6-4.1,2-8.5-2.4-9.3c-15.1-3-42.9-4.6-54.9-6.3c-11.5-1.7-14-1.2-16.1,1.5c-0.1,0.1-0.3,0.4-0.4,0.5c-2.1,2.6-2,5.2,2.3,16
			c4.5,11.3,14.9,34.9,21.3,48.9C65.9,111,67.3,111.2,71.2,109.7z"/>
		
			<linearGradient id="SVGID_9_" gradientUnits="userSpaceOnUse" x1="4286.7026" y1="-297.712" x2="4360.7295" y2="-297.712" gradientTransform="matrix(-0.6188 0.7856 -0.7856 -0.6188 2511.8767 -3515.6755)">
			<stop  offset="0" style="stop-color:#FBFBFB"/>
			<stop  offset="1" style="stop-color:#F1D7C8"/>
		</linearGradient>
		<path class="st12" d="M113.3,52.7c0.1,0.6,0,1.5-0.1,2.8c-1.6,11.8-6.3,23-13.7,32.3L99.3,88c-7.4,9.4-17.1,16.6-28.2,20.9
			c-3.5,1.4-4.5,1.3-6.2-2.4C58.6,92.8,48.1,69,43.6,57.7c-2.3-5.6-3.3-8.8-3.5-11c-0.2-2,0.2-3.1,1.1-4.2l0.4-0.5
			c1.7-2.2,3.6-2.9,15.3-1.2c12,1.8,37.6,6.3,52.5,9.2C112.5,50.6,113.1,51.4,113.3,52.7L113.3,52.7z"/>
		<path class="st13" d="M41.1,34.2c0,0-0.8,1.1-1,3.7c-0.2,2.6-1.7,4.8-0.5,9C42,55,56.1,87.6,57.1,89.7c1,2.1,8.5,19.9,9.6,19.8
			c1.1-0.1,6.8-13.2,6.5-19.4S41.1,34.2,41.1,34.2z"/>
		<path class="st11" d="M65.8,98.1c0,0,1.9,3.8,1.2,7.3c-0.8,3.6-1.8,3-1.8,3s2.1,2.9,3.8,0.4S69,98.5,65.8,98.1z"/>
		<path class="st11" d="M72.7,100.4c10.9-4.2,20.8-11.3,28.6-21.2c0,0,0.1-0.1,0.1-0.2c7.7-9.8,12.3-21.2,13.9-32.7
			c0.6-4.1,0-5.5-4.4-6.3c-15.1-3-40.5-7.5-52.5-9.2c-11.5-1.7-14-1.2-16.1,1.5c-0.1,0.1-0.3,0.4-0.4,0.5c-2.1,2.6-2,5.2,2.3,16
			c4.5,11.3,14.9,34.9,21.3,48.9C67.4,101.7,68.8,101.9,72.7,100.4z"/>
		<linearGradient id="SVGID_10_" gradientUnits="userSpaceOnUse" x1="41.4854" y1="70.2034" x2="114.7878" y2="70.2034">
			<stop  offset="0" style="stop-color:#FBFBFB"/>
			<stop  offset="1" style="stop-color:#F1D7C8"/>
		</linearGradient>
		<path class="st14" d="M114.8,43.5L114.8,43.5c-0.2-1.3-0.8-2.1-3.9-2.7c-14.8-2.9-40.4-7.5-52.5-9.2c-11.8-1.7-13.6-1-15.3,1.2
			l-0.4,0.5c-0.9,1.1-1.3,2.2-1.1,4.2c0.3,2.2,1.3,5.4,3.5,11c4.5,11.3,15,35.1,21.3,48.8c0.2,0.4,0.4,0.8,0.6,1.1
			c0.5,1.4,1,3.5,1,6c0,4.6-2,4.5-2,4.5s1.2,1.5,3.5,0.8c2.2-0.7,40.7-12.6,44.9-61.9c0.1-0.5,0.2-1,0.2-1.5
			C114.8,45,114.8,44.1,114.8,43.5z"/>
		<linearGradient id="SVGID_11_" gradientUnits="userSpaceOnUse" x1="94.1589" y1="121.7586" x2="89.0267" y2="52.276">
			<stop  offset="0" style="stop-color:#FBF2EC"/>
			<stop  offset="1" style="stop-color:#BFA393"/>
		</linearGradient>
		<path class="st15" d="M114.2,50.2c0,0-6.8,39.4-45.1,50.9c0,0,1.6,7.8-1.2,8.7c0,0,5.3-0.5,15.2-7
			C95.6,94.8,111.8,78.1,114.2,50.2z"/>
		
			<linearGradient id="SVGID_12_" gradientUnits="userSpaceOnUse" x1="-376.6287" y1="3.2693" x2="-365.0011" y2="-22.7878" gradientTransform="matrix(-0.1179 -0.993 0.993 -0.1179 33.2907 -305.9954)">
			<stop  offset="0" style="stop-color:#FBF2EC"/>
			<stop  offset="1" style="stop-color:#BFA393"/>
		</linearGradient>
		<path class="st16" d="M55.7,62.2c1.1,2.1,2.7,6.2,6.9,4.6c4.2-1.5,6.8-4.6,11.5,0.3c4.8,4.9,4.3,5.9,8.5,5c4.2-0.8-1.9-1.3-3-4.1
			c-1.1-2.8-4.4-11.5-10.7-8.6c-6.3,2.9-8.2,4.1-11.7,1.4C53.8,58.1,53.3,57.7,55.7,62.2z"/>
		
			<linearGradient id="SVGID_13_" gradientUnits="userSpaceOnUse" x1="-350.6956" y1="-2.7467" x2="-352.5168" y2="-27.4029" gradientTransform="matrix(-0.1179 -0.993 0.993 -0.1179 33.2907 -305.9954)">
			<stop  offset="0" style="stop-color:#FBF2EC"/>
			<stop  offset="1" style="stop-color:#BFA393"/>
		</linearGradient>
		<path class="st17" d="M47.1,44.2c0.8,3.1,5,5.8,7.9,4.3c3-1.5,6.5-3.8,9.4-0.4c2.8,3.4,5.4,4.8,3-0.8c-2.4-5.6-4.3-9-9.2-7.5
			c-4.9,1.5-6.2,5-9.6,1.6C45.3,37.9,46.3,40.9,47.1,44.2z"/>
		
			<linearGradient id="SVGID_14_" gradientUnits="userSpaceOnUse" x1="-360.045" y1="16.9322" x2="-368.4505" y2="-5.4825" gradientTransform="matrix(-0.1179 -0.993 0.993 -0.1179 33.2907 -305.9954)">
			<stop  offset="0" style="stop-color:#FBF2EC"/>
			<stop  offset="1" style="stop-color:#BFA393"/>
		</linearGradient>
		<path class="st18" d="M77.4,51.5c3.8-0.4,6.7-0.7,8.3,3.1c1.6,3.8,5,5.3,8.2,4.3c3.1-1.1-2.3-1.9-4.3-7.8c-2-5.9-5.6-7.7-9.8-4.6
			C75.4,49.4,73.2,52,77.4,51.5z"/>
		
			<linearGradient id="SVGID_15_" gradientUnits="userSpaceOnUse" x1="-365.6647" y1="41.6436" x2="-388.7798" y2="-0.524" gradientTransform="matrix(-0.1179 -0.993 0.993 -0.1179 33.2907 -305.9954)">
			<stop  offset="0" style="stop-color:#FBF2EC"/>
			<stop  offset="1" style="stop-color:#BFA393"/>
		</linearGradient>
		<path class="st19" d="M88.6,80.3c-1.6,2.3-2.5,5.1-5.5,5c-3-0.1-5.8,2.1-7.4,3.7c-1.6,1.6-3.8,2.8-4.9,1.5
			c-1.1-1.3-3.8-2.3-3.1-0.3c1.1,3.2,3.7,9,4.6,7.6c0.9-1.3,2-4.2,4.5-4.2c2.5-0.1,5.5-1.9,6.5-4c1-2.1,3.1-3.5,5.3-4
			c2.1-0.6,3.7-3,3.9-6C92.7,76.5,90.2,77.9,88.6,80.3z M95,76.5c0,3.1,1.4,1.1,2.9,0.1s3.8-3.1,2.7-6.7
			C99.6,66.2,95.1,73.3,95,76.5z M108.2,46.6c-0.2,3.3,0.5,7.4-1,6.9c-1.5-0.4-3,2.8-2.8,6.3c0.1,2.3,2.1,7,2.8,3
			c0.8-4,0.3-9.3,1.8-7.6c1.4,1.7,3.2-2.4,2.6-6.1C110.9,45.5,108.4,43.3,108.2,46.6z"/>
		<g>
			
				<radialGradient id="SVGID_16_" cx="-372.4802" cy="11.7069" r="21.4465" gradientTransform="matrix(-0.1179 -0.993 0.993 -0.1179 33.2907 -305.9954)" gradientUnits="userSpaceOnUse">
				<stop  offset="0.2761" style="stop-color:#420A1A"/>
				<stop  offset="0.3767" style="stop-color:#4A111D"/>
				<stop  offset="0.534" style="stop-color:#602426"/>
				<stop  offset="0.7284" style="stop-color:#854335"/>
				<stop  offset="0.9504" style="stop-color:#B76D49"/>
				<stop  offset="0.9965" style="stop-color:#C2774E"/>
			</radialGradient>
			<path class="st20" d="M87.9,47.4c-3.6-0.6-7.1,1.5-8.3,4.9c-0.4,0.4-0.8,0.8-0.9,1.3c-0.1,0.6-0.5,0-0.8-0.4
				c-0.4-0.4-0.4-0.7-0.6-0.1c-0.2,0.6-0.5,2.4-0.8,1.7c-0.3-0.7-1.1-1.9-1.4-2.2c-0.3-0.3-0.4,0.3-0.4,0.7c0,0.4,0,0.7-0.2,0.4
				c-0.2-0.2-0.6-0.8-1.1-1.1c-0.5-0.3-0.4-0.1-0.4,0.5c0,0.5,0.3,0.9-0.3,0.8c-0.6-0.1-1.3-0.3-1.3-0.1c-0.1,0.2,0.4,0.8,0.8,1.4
				c0.4,0.6,0,0.5-0.3,0.7c-0.3,0.2-0.5,0.2-0.1,0.6c0.4,0.3,1,0.5,1.2,0.6c0.2,0,0.1,0.2-0.2,0.4c-0.2,0.2-0.5,0.5-0.2,0.7
				c0.3,0.1,1.4,0.4,2,0.4c0.6,0-0.4,0.9-0.7,1.3c0,0,0,0,0,0.1c-0.1-0.1-0.2-0.2-0.3-0.2c-1-0.6-0.6,0.3-0.9,0.9
				c-0.3,0.6-0.4-0.8-1.4-1.2c-1-0.4-0.5,0.4-0.5,1c0,0.6-0.2,0.8-0.6,0.5c-0.4-0.4-1.5-0.7-1.8-0.6c-0.3,0.1,0.2,1.1,0.6,1.6
				c0.4,0.5,0.4,0.7-0.1,0.8c-0.5,0.1-0.6,0.1,0,0.8c0.6,0.8,1.5,1,0.9,1.1c-0.6,0.1-0.9,0.1-0.5,0.6c0.4,0.4,1.6,1.2,2.4,1.8
				c0.8,0.6,0,1.5-0.5,1c-0.5-0.5-1.7-1.7-2.2-2c-0.5-0.3-0.8-0.6-0.7-0.2c0,0.5,0.1,1.4-0.1,1.1c-0.3-0.3-1-0.9-1.5-0.9
				c-0.4,0-0.6-0.2-0.5,0.4c0.2,0.5,0.3,1.2,0.7,1.6c0.4,0.4-0.2,0.4-0.6,0.4c-0.4,0.1-0.6,0-0.3,0.4c0.3,0.5,1.6,1.7,1,1.5
				c-0.6-0.1-1.8-0.1-2.1,0c-0.3,0.1,0,0.5,0.3,0.8c0.3,0.3,0.5,0.4,0.2,0.4c-0.2,0-0.8,0.1-1.3,0.4c-0.4,0.3-0.2,0.3,0.2,0.6
				c0.4,0.3,0.8,0.3,0.4,0.8c-0.4,0.5-0.8,1.1-0.7,1.3c0.1,0.2,0.8,0.1,1.4,0.1c0.6-0.1,0.4,0.3,0.4,0.8c0.1,0.5,0,0.7,0.4,0.5
				c0.5-0.2,0.8-0.7,1-0.9c0.1-0.2,0.2,0.1,0.2,0.4c0.1,0.4,0.3,0.9,0.5,0.7c0.2-0.3,0.9-1.3,1.1-1.9c0.2-0.6,0.6,1.1,0.8,1.6
				c0.2,0.5,0.2,0.3,0.5,0c0.3-0.4,0.5-0.8,0.7-0.3c0.1,0.5,0.6,1,1,1.4c0.4,0.4,0.3,0.2,0.5-0.2c0.2-0.4,0.1-1.4-0.1-1.7
				c-0.1-0.4,0.6,0.2,1,0.4c0.4,0.3,0.3-0.1,0.2-0.7c0-0.6-0.4-2.2-0.7-2.9c-0.2-0.7,0.9-0.9,1.1,0.1c0.1,1,0.2,2.4,0.3,2.9
				c0.2,0.5,0.3,0.3,0.7-0.2c0.4-0.5,0.1,0.4,0.5,1.3c0.4,0.9,0.4,0.8,0.7,0.4c0.4-0.4,0.6-0.2,0.8,0.3c0.2,0.5,0.8,1.5,1.1,1.3
				c0.3-0.2,0.5-1.3,0.4-1.9c-0.1-0.5,0.2-0.6,0.7-0.3c0.5,0.3,0.9,1.1,1.1,0.1c0.2-1.1-1-1.8-0.3-1.8c0.1,0,0.2,0,0.2,0
				c0.8,1,1.8,1.8,2.9,2.2c0,0.2,0,0.4,0,0.6c0.1,0.5,0.1,0.4,0.5,0.2c0.4-0.2,0.5-0.5,0.8,0.1c0.3,0.6,0.6,1.4,0.8,1.4
				c0.2,0.1,0.4-0.6,0.6-1.2c0.2-0.6,0.4-0.2,0.8,0.1c0.5,0.3,0.6,0.5,0.6-0.1c0-0.2,0-0.5-0.1-0.7c0.9-0.1,1.7-0.4,2.5-0.9
				c0.5-0.3,0.9-0.6,1.3-1c0.1,0,0.2,0,0.4-0.1c0.6-0.3,1.3-0.5,1.6-1c0.3-0.5,0.4,0.2,0.6,0.7c0.2,0.5,0.1,0.8,0.5,0.3
				c0.4-0.5,1.4-2.1,1.4-1.3c0,0.8,0.3,2.2,0.4,2.6c0.2,0.4,0.5-0.1,0.7-0.5c0.2-0.4,0.3-0.6,0.3-0.3c0.1,0.3,0.3,0.9,0.6,1.4
				c0.3,0.5,0.3,0.2,0.5-0.3c0.2-0.5,0.1-1,0.6-0.6c0.5,0.3,1.1,0.8,1.2,0.6c0.2-0.1-0.1-0.9-0.2-1.6c-0.2-0.7,0.1-0.5,0.5-0.6
				c0.4-0.1,0.5,0,0.3-0.5c-0.3-0.5-0.7-0.8-0.9-1c-0.2-0.1,0-0.2,0.3-0.3c0.3-0.1,0.6-0.3,0.4-0.6c-0.2-0.2-1.2-0.9-1.7-1.1
				c-0.6-0.2,0.8-0.7,1.1-0.9c0,0,0,0,0.1,0c0.1,0.1,0.1,0.2,0.2,0.3c0.7,1,0.6,0,1.2-0.5c0.5-0.5,0,0.9,0.8,1.6
				c0.8,0.7,0.7-0.2,0.8-0.7c0.2-0.5,0.5-0.7,0.7-0.2c0.2,0.5,1.1,1.3,1.4,1.2c0.3,0,0.2-1.1,0.1-1.7c-0.2-0.6-0.1-0.8,0.4-0.7
				c0.5,0.1,0.6,0.2,0.3-0.8c-0.3-1-1-1.5-0.4-1.4c0.6,0.1,0.9,0.2,0.7-0.3c-0.2-0.5-1-1.7-1.5-2.5c-0.5-0.9,0.6-1.4,0.8-0.7
				c0.2,0.7,0.9,2.2,1.2,2.7c0.4,0.5,0.5,0.9,0.6,0.4c0.1-0.5,0.4-1.4,0.6-1c0.1,0.4,0.6,1.3,1,1.4c0.4,0.2,0.5,0.4,0.6-0.2
				c0-0.6,0.2-1.2,0-1.7c-0.2-0.5,0.3-0.3,0.7-0.2c0.4,0.1,0.6,0.3,0.4-0.3c-0.1-0.6-0.9-2.1-0.3-1.8c0.5,0.4,1.6,0.8,2,0.8
				c0.3,0.1,0.2-0.5,0-0.8c-0.2-0.3-0.3-0.6-0.1-0.5c0.2,0.1,0.8,0.2,1.3,0.1c0.5-0.1,0.3-0.2,0.1-0.6c-0.3-0.4-0.7-0.6-0.1-0.9
				c0.5-0.3,1.2-0.7,1.1-0.9c0-0.2-0.7-0.4-1.3-0.6c-0.6-0.2-0.3-0.4-0.1-0.9c0.1-0.5,0.3-0.6-0.2-0.6c-0.5,0-1,0.3-1.2,0.5
				c-0.2,0.1-0.1-0.1-0.1-0.5c0.1-0.4,0.1-0.9-0.2-0.8c-0.3,0.1-1.3,0.9-1.7,1.3c-0.4,0.5-0.2-1.2-0.2-1.8c0-0.6-0.1-0.4-0.5-0.2
				c-0.4,0.2-0.8,0.6-0.7,0c0.1-0.5-0.2-1.1-0.4-1.6c-0.2-0.5-0.2-0.3-0.6,0c-0.4,0.3-0.6,1.2-0.6,1.6c0,0.4-0.5-0.4-0.8-0.8
				c-0.3-0.4-0.3,0-0.5,0.6c-0.2,0.6-0.4,2.2-0.5,2.9c0,0.7-1.2,0.5-1-0.5c0.2-1,0.7-2.3,0.8-2.8c0.1-0.6-0.2-0.4-0.8-0.1
				c-0.6,0.3,0-0.4,0-1.4c0-1,0-0.9-0.5-0.6c-0.5,0.2-0.6,0-0.6-0.6c0-0.6-0.2-1.7-0.5-1.6c-0.3,0.1-1,1.1-1.1,1.6
				c-0.1,0.5-0.4,0.4-0.7,0c-0.3-0.5-0.4-1.4-1-0.5c-0.6,0.9,0.3,2.1-0.4,1.8c-0.7-0.3-0.9-1.3-1.3-0.2c0,0.1-0.1,0.2-0.1,0.3
				c0,0-0.1-0.1-0.2-0.1c-0.4-0.1-1.8-0.2-1.3-0.6c0.5-0.3,1.2-1.2,1.4-1.5c0.2-0.3-0.3-0.4-0.5-0.4c-0.3,0-0.5,0-0.4-0.2
				c0.2-0.2,0.5-0.6,0.6-1.2c0.1-0.5,0-0.4-0.4-0.4c-0.4,0-0.7,0.3-0.7-0.4c0-0.7,0-1.5-0.2-1.6c-0.2-0.2-0.6,0.4-1,0.9
				c-0.4,0.5-0.4,0-0.7-0.4c-0.3-0.4-0.4-0.7-0.6-0.1c-0.2,0.6-0.2,1.2-0.2,1.5c0,0.3-0.2,0.1-0.4-0.2c-0.3-0.3-0.7-0.7-0.8-0.3
				c0,0.2,0,0.6,0,1.1C91.5,48.9,89.9,47.8,87.9,47.4z M92.3,59.6c-0.4,0.8-1.2,2.1-2,2.1c0,0,0,0,0,0c-0.3-0.1-0.6-0.2-0.8-0.3
				c1.1-0.5,2.1-1.2,2.9-2.2c0,0.1,0,0.1,0,0.2C92.3,59.5,92.3,59.5,92.3,59.6z M97.6,63.3c1,0.8,1.7,2.4,1.9,3.4
				c-0.3,0-0.6,0.1-0.7,0.1c-0.3,0.1,0-0.7,0.2-1.1c0.1-0.4-0.1-0.3-0.6-0.3c-0.5,0-2.3,0.4-2.9,0.6c-0.6,0.3-1.1,0.1-1.4-0.1
				c-0.7-0.8-1.3-1.6-1.5-1.8c-0.2-0.2-0.4-0.9,0.1-1c1.3-0.1,2.8-0.2,4.3-0.4C97.1,62.9,97.3,63,97.6,63.3z M93.4,67.3
				c-0.2-0.6-0.4-1.1-0.7-1.7c0,0,0-0.1-0.1-0.1c0.3,0.3,0.5,0.5,0.6,0.7c0,0,0.1,0.1,0.2,0.2C93.5,66.7,93.6,67,93.4,67.3z
				 M81.1,59.5c0.5,0.6,1.1,1.1,1.8,1.5c-0.5-0.2-1-0.4-1.2-0.5c-0.1,0-0.1-0.1-0.3-0.1C81.2,60.1,81.1,59.8,81.1,59.5z M80,65.6
				c-0.1,0.2-0.2,0.3-0.3,0.5C79.8,65.9,79.9,65.8,80,65.6C80,65.6,80,65.6,80,65.6z M81.1,60.9c0.9,0.5,1.8,1,2,1.1
				c0.2,0.1,0.4,0.3,0.4,0.5c-0.3,0.1-0.6,0.3-0.9,0.4c-0.5,0.3-1,0.7-1.4,1.1c-0.6,0.3-1.1,0.6-1.7,0.9c-0.2,0-0.5-0.1-0.8-0.2
				c-1.2-0.4-2.4-1.6-3-2.4c0.3-0.1,0.5-0.3,0.6-0.4c0.2-0.2,0.2,0.6,0.3,1.1c0,0.4,0.2,0.2,0.7,0c0.5-0.2,2-1.2,2.5-1.7
				C80.2,60.9,80.7,60.8,81.1,60.9z M96.8,62c-1.5,0.1-2.9,0.2-3.9,0.1c-0.1,0-0.2,0-0.3,0c-0.5-0.1-0.5-0.4-0.4-0.7
				c0.1-0.2,0.5-1,0.8-1.9c0.3-0.3,0.7-0.5,1.3-0.4c0.7,0.1,2.5,0,3-0.2c0.5-0.2,0.8-0.1,0.5-0.5c-0.3-0.3-0.8-1-0.4-1
				c0.2,0,0.6,0,0.9-0.1c0.1,1-0.1,2.9-0.9,4C97.1,61.6,96.9,61.8,96.8,62z M74.9,60.8c0,0-0.1,0.1-0.1,0.2
				c-0.1-0.2-0.3-0.5-0.5-0.7C74.8,60.4,75.2,60.5,74.9,60.8z M99.6,68.4c0.1,0,0.1-0.1,0.2-0.1c0,0.3,0.1,0.5,0.2,0.8
				C99.6,68.8,99.2,68.5,99.6,68.4z M98,55.8c-0.1-0.1-0.2-0.1-0.3-0.1c-0.4,0-0.1-0.4,0.2-0.8c0.1-0.1,0.1-0.2,0.2-0.3
				C97.9,55,98,55.4,98,55.8z"/>
			<g>
				<g>
					
						<linearGradient id="SVGID_17_" gradientUnits="userSpaceOnUse" x1="333.2791" y1="-30.3367" x2="337.1128" y2="-30.3367" gradientTransform="matrix(0.7982 0.6023 -0.6023 0.7982 -180.2248 -113.5774)">
						<stop  offset="0" style="stop-color:#69AD0F"/>
						<stop  offset="0.3806" style="stop-color:#5BA00E"/>
						<stop  offset="1" style="stop-color:#3C830B"/>
					</linearGradient>
					<path class="st21" d="M106.8,71.6c-0.1-0.5-0.1-0.8,0.4-0.7c0.5,0.1,0.6,0.2,0.3-0.7c-0.3-0.9-1-1.5-0.4-1.3
						c0.6,0.1,0.9,0.2,0.7-0.3c-0.2-0.5-1-1.6-1.5-2.4c-0.5-0.8,0.5-1.4,0.8-0.7c0.2,0.7,0.9,2.1,1.2,2.6c0.3,0.5,0.5,0.9,0.6,0.4
						c0.1-0.4,0.4-1.3,0.5-0.9c0.1,0.4,0.6,1.2,1,1.4c0.4,0.2,0.5,0.4,0.5-0.1c0-0.5,0.1-1.2,0-1.6c-0.2-0.5,0.3-0.3,0.7-0.2
						c0.4,0.1,0.6,0.3,0.4-0.3c-0.1-0.5-0.8-2.1-0.3-1.7c0.5,0.3,1.6,0.7,1.9,0.8c0.3,0.1,0.2-0.5,0-0.8c-0.2-0.3-0.3-0.6-0.1-0.5
						c0.2,0.1,0.8,0.2,1.3,0.1c0.5-0.1,0.3-0.2,0.1-0.6c-0.3-0.4-0.6-0.5-0.1-0.9c0.5-0.3,1.1-0.7,1.1-0.9c0-0.2-0.7-0.4-1.3-0.6
						c-0.6-0.2-0.3-0.4-0.1-0.9c0.1-0.5,0.3-0.6-0.2-0.6c-0.5,0-1,0.3-1.2,0.5c-0.2,0.1-0.1-0.1-0.1-0.5c0.1-0.4,0.1-0.9-0.2-0.8
						c-0.3,0.1-1.2,0.8-1.6,1.3c-0.4,0.5-0.2-1.2-0.2-1.7c0-0.6-0.1-0.4-0.5-0.2c-0.4,0.2-0.8,0.6-0.7,0c0.1-0.5-0.2-1.1-0.4-1.6
						c-0.2-0.5-0.2-0.3-0.6,0c-0.3,0.3-0.5,1.2-0.6,1.6c0,0.4-0.5-0.4-0.8-0.8c-0.3-0.4-0.3,0-0.5,0.6c-0.2,0.6-0.4,2.1-0.4,2.8
						c0,0.7-1.2,0.5-0.9-0.5c0.2-0.9,0.7-2.2,0.8-2.7c0.1-0.5-0.2-0.4-0.7-0.1c-0.5,0.3,0-0.4,0-1.4c0-1,0-0.8-0.5-0.6
						c-0.5,0.2-0.6,0-0.6-0.6c0-0.6-0.2-1.6-0.5-1.5c-0.3,0.1-0.9,1-1,1.5c-0.1,0.5-0.4,0.4-0.7,0c-0.3-0.4-0.4-1.3-1-0.5
						c-0.6,0.9,0.3,2-0.4,1.7c-0.6-0.3-0.9-1.2-1.2-0.1c-0.4,1.1-0.1,2.1,0.1,3c0.1,0.9-0.1,2.8-0.8,3.9c-0.4,0.6-0.8,0.9-1,0.9
						l0,0.3c0.2,0,0.6,0.2,1.2,0.6c1.1,0.9,1.8,2.6,1.9,3.6c0.1,0.9,0.1,2,0.8,2.9c0.7,0.9,0.6,0,1.2-0.5c0.5-0.5,0,0.8,0.8,1.5
						c0.8,0.7,0.6-0.2,0.8-0.7c0.2-0.5,0.5-0.7,0.7-0.2c0.2,0.5,1.1,1.2,1.4,1.2C107,73.2,107,72.1,106.8,71.6z"/>
					
						<linearGradient id="SVGID_18_" gradientUnits="userSpaceOnUse" x1="670.7449" y1="788.5778" x2="666.5644" y2="788.5778" gradientTransform="matrix(0.1385 0.9903 -0.9903 0.1385 795.6799 -706.2834)">
						<stop  offset="0" style="stop-color:#69AD0F"/>
						<stop  offset="0.3806" style="stop-color:#5BA00E"/>
						<stop  offset="1" style="stop-color:#3C830B"/>
					</linearGradient>
					<path class="st22" d="M101.5,69.5c0,0.2,0,0.4,0.1,0.6c0.1,0.5,0.2,1.1,0.6,1.6c0.1,0.1,0.1,0.2,0.2,0.2c0,0,0.1-0.1,0.1-0.1
						c0.1-0.2,0.2-0.4,0.5-0.6c0.1-0.1,0.3-0.2,0.5-0.1c0.2,0.1,0.3,0.3,0.3,0.5c0,0,0,0.1,0,0.2c0,0.1,0,0.1,0,0.2
						c0,0.3,0.1,0.6,0.4,0.8c0.1,0.1,0.1,0.1,0.2,0.1c0-0.1,0-0.2,0.1-0.3c0-0.1,0.1-0.3,0.1-0.4c0.2-0.6,0.5-0.7,0.7-0.7
						c0.1,0,0.4,0,0.6,0.4c0.2,0.3,0.7,0.8,1,1c0-0.2,0-0.4,0-0.8c0-0.2,0-0.3-0.1-0.4c0-0.1-0.1-0.2-0.1-0.3c0-0.1-0.1-0.4,0.1-0.6
						c0.2-0.2,0.5-0.2,0.7-0.2c0,0,0.1,0,0.1,0c0-0.1-0.1-0.2-0.1-0.4c-0.1-0.4-0.3-0.7-0.4-0.9c-0.1-0.2-0.2-0.3-0.2-0.4
						c0-0.1,0-0.2,0.1-0.3c0.2-0.1,0.4-0.1,0.5-0.1c0.1,0,0.2,0,0.3,0.1c-0.1-0.3-0.4-0.8-0.8-1.2c-0.2-0.4-0.5-0.8-0.7-1.1
						c-0.1-0.1-0.1-0.3-0.2-0.5c-0.1-0.5,0.3-0.9,0.6-1c0.4-0.1,0.7,0.1,0.8,0.5c0.2,0.6,0.8,2.1,1.2,2.5c0.1,0.1,0.1,0.1,0.1,0.2
						c0.2-0.7,0.4-1,0.7-1c0.1,0,0.3,0,0.4,0.3c0.1,0.4,0.5,1.1,0.8,1.2c0,0,0.1,0,0.1,0.1c0-0.1,0-0.1,0-0.2c0-0.3,0.1-0.7,0-1
						c0-0.1,0-0.2-0.1-0.3c0-0.1-0.1-0.1-0.1-0.2c0-0.2,0.1-0.3,0.1-0.4c0.2-0.2,0.5-0.1,0.8,0c0.1,0,0.2,0,0.2,0.1c0,0,0,0,0.1,0
						c0-0.1-0.1-0.3-0.2-0.5c-0.1-0.4-0.3-0.8-0.3-1c0-0.2,0-0.4,0.2-0.5c0.1-0.1,0.3-0.1,0.5,0c0.4,0.3,1.2,0.6,1.6,0.7
						c0-0.1-0.1-0.2-0.1-0.3c0-0.1,0-0.1-0.1-0.1c-0.1-0.2-0.1-0.3-0.1-0.4c0-0.1,0-0.3,0.1-0.3c0.1-0.1,0.2-0.1,0.4,0
						c0.2,0.1,0.7,0.2,1.1,0.1c0,0-0.1-0.1-0.1-0.1c-0.1-0.1-0.1-0.2-0.2-0.2c-0.1-0.1-0.2-0.3-0.2-0.4l0,0c0-0.3,0.3-0.5,0.4-0.6
						l0,0c0.2-0.2,0.7-0.4,0.8-0.6c-0.2-0.1-0.7-0.2-1-0.3l0,0c-0.1,0-0.5-0.1-0.6-0.5c0-0.2,0-0.3,0.1-0.5c0-0.1,0.1-0.2,0.1-0.3
						c0-0.1,0-0.1,0.1-0.2c-0.4,0-0.8,0.3-1,0.4c-0.1,0.1-0.3,0.1-0.4,0.1c-0.1,0-0.2-0.2-0.2-0.3c0-0.1,0-0.2,0-0.4
						c0,0,0-0.1,0-0.2c0-0.1,0-0.2,0-0.3c-0.4,0.2-1,0.7-1.3,1.1c-0.2,0.2-0.3,0.2-0.5,0.2c-0.2,0-0.3-0.2-0.3-0.4
						c0-0.3,0-0.7,0-1.1c0-0.2,0-0.4,0-0.5c0,0,0,0,0,0c-0.1,0-0.1,0.1-0.2,0.1c-0.3,0.2-0.5,0.3-0.7,0.2c-0.1,0-0.2-0.1-0.2-0.3
						l0,0c0-0.1,0-0.1,0-0.2c0-0.1,0-0.2,0-0.3c0-0.3-0.2-0.6-0.3-0.9c0-0.1,0-0.1-0.1-0.2c0,0-0.1,0.1-0.1,0.1
						c-0.2,0.2-0.4,0.9-0.4,1.3c0,0.3-0.2,0.4-0.3,0.4c-0.3,0.1-0.5-0.2-0.9-0.8c0,0.1-0.1,0.2-0.1,0.2c-0.2,0.5-0.4,2.1-0.4,2.7
						c0,0.4-0.3,0.7-0.7,0.7c-0.4,0-0.8-0.3-0.9-0.8c0-0.1,0-0.3,0-0.5c0.1-0.4,0.2-0.8,0.4-1.3c0.2-0.5,0.3-1.1,0.4-1.4
						c-0.1,0-0.2,0.1-0.3,0.1c-0.1,0.1-0.3,0.2-0.5,0.1c-0.1-0.1-0.2-0.2-0.2-0.3l0,0c0-0.1,0-0.3,0.1-0.5c0.1-0.2,0.2-0.6,0.2-1
						c0-0.1,0-0.3,0-0.4c0,0-0.1,0-0.1,0c-0.2,0.1-0.5,0.2-0.7,0c-0.2-0.1-0.3-0.4-0.3-0.5c0-0.1,0-0.2,0-0.3c0-0.1,0-0.3,0-0.4
						c-0.1-0.4-0.1-0.6-0.2-0.8c-0.2,0.2-0.6,0.8-0.7,1.2c-0.1,0.4-0.3,0.6-0.5,0.6c-0.2,0-0.5,0-0.8-0.5c-0.1-0.1-0.2-0.3-0.2-0.4
						c0-0.1-0.1-0.2-0.1-0.2c0,0-0.1,0.1-0.1,0.2c-0.2,0.3-0.2,0.6-0.1,0.9c0,0.1,0,0.1,0,0.2c0,0.1,0,0.1,0,0.2
						c0,0.1,0.1,0.4-0.1,0.5c-0.2,0.1-0.4,0-0.5,0c-0.3-0.1-0.4-0.3-0.6-0.5c0,0-0.1-0.1-0.1-0.1c0,0-0.1,0.1-0.1,0.3
						c-0.2,0.6-0.2,1.2-0.1,1.7c0,0.2,0.1,0.4,0.1,0.6c0,0.2,0.1,0.4,0.1,0.6c0.1,1-0.1,2.9-0.9,4.2c-0.1,0.1-0.2,0.2-0.2,0.3
						l-0.3,0.5l0.5,0.4c0.1,0.1,0.2,0.2,0.3,0.2c1.1,0.9,1.9,2.8,2,3.8C101.5,69.1,101.5,69.3,101.5,69.5z"/>
					
						<linearGradient id="SVGID_19_" gradientUnits="userSpaceOnUse" x1="335.9128" y1="-22.0619" x2="333.7244" y2="-17.6341" gradientTransform="matrix(0.7982 0.6023 -0.6023 0.7982 -180.2248 -113.5774)">
						<stop  offset="0" style="stop-color:#69AD0F"/>
						<stop  offset="0.3806" style="stop-color:#5BA00E"/>
						<stop  offset="1" style="stop-color:#3C830B"/>
					</linearGradient>
					<path class="st23" d="M100.1,77.9c0.2-0.5,0.1-0.9,0.6-0.6c0.5,0.3,1,0.7,1.2,0.5c0.2-0.1-0.1-0.9-0.2-1.5
						c-0.2-0.7,0.1-0.4,0.5-0.5c0.4-0.1,0.5,0,0.3-0.5c-0.3-0.5-0.7-0.8-0.9-0.9c-0.2-0.1,0-0.2,0.3-0.3c0.3-0.1,0.6-0.3,0.4-0.5
						c-0.2-0.2-1.1-0.8-1.7-1c-0.5-0.2,0.7-0.6,1.1-0.9c0.4-0.2,0.2-0.3-0.1-0.5c-0.3-0.3-0.7-0.6-0.4-0.7c0.4-0.1,0.6-0.6,0.8-1
						c0.2-0.4,0.1-0.3-0.3-0.5c-0.3-0.3-1-0.1-1.3,0c-0.3,0.1,0-0.6,0.1-1c0.1-0.4-0.1-0.3-0.6-0.3c-0.5,0-2.2,0.3-2.8,0.6
						c-1.3,0.5-1.9-0.6-1.9-0.6s-0.7-0.8-0.1,0.5c0.2,0.2,0.5,1,0,1.5c-1.6,1.4-2.2,2.6-2.5,3.3c-0.3,0.7-0.6,1,0,0.9
						c0.6-0.1,1.6-0.2,1.3,0.1c-0.3,0.3-0.9,1.3-0.8,1.9c0.1,0.6-0.1,0.8,0.5,0.6c0.6-0.3,1.2-0.5,1.6-1c0.3-0.5,0.4,0.2,0.6,0.7
						c0.2,0.5,0.1,0.8,0.5,0.3c0.4-0.5,1.3-2,1.3-1.3c0,0.7,0.3,2.1,0.4,2.5c0.1,0.4,0.5-0.1,0.6-0.5c0.2-0.3,0.3-0.6,0.3-0.3
						c0.1,0.3,0.3,0.9,0.6,1.4C100,78.6,100,78.4,100.1,77.9z"/>
					
						<linearGradient id="SVGID_20_" gradientUnits="userSpaceOnUse" x1="676.4487" y1="801.2057" x2="675.1163" y2="798.3864" gradientTransform="matrix(0.1385 0.9903 -0.9903 0.1385 795.6799 -706.2834)">
						<stop  offset="0.2331" style="stop-color:#69AD0F"/>
						<stop  offset="0.5249" style="stop-color:#5BA00E"/>
						<stop  offset="1" style="stop-color:#3C830B"/>
					</linearGradient>
					<path class="st24" d="M93.4,75.7L93.4,75.7c0,0.2,0,0.3,0,0.4c0,0,0,0,0,0c0.1,0,0.2-0.1,0.2-0.1c0.5-0.2,1-0.4,1.2-0.8
						c0.1-0.1,0.2-0.3,0.5-0.3c0.3,0.1,0.4,0.4,0.5,0.8c0,0.1,0.1,0.2,0.1,0.3c0,0.1,0,0.1,0.1,0.2c0.1-0.1,0.2-0.3,0.4-0.5
						c0.5-0.8,0.8-1.1,1.1-1c0.1,0,0.3,0.1,0.3,0.4c0,0,0,0.1,0,0.1c0,0.2,0,0.5,0.1,0.8c0.1,0.5,0.2,1.1,0.3,1.4
						c0-0.1,0.1-0.2,0.2-0.3c0-0.1,0.1-0.1,0.1-0.1c0.1-0.3,0.2-0.5,0.5-0.5c0.1,0,0.3,0.1,0.3,0.4c0.1,0.3,0.2,0.8,0.5,1.1
						c0,0,0-0.1,0-0.1c0-0.1,0.1-0.2,0.1-0.3c0-0.2,0.1-0.5,0.3-0.6c0.2-0.1,0.4,0,0.6,0.1l0,0c0.2,0.1,0.5,0.3,0.7,0.4c0,0,0,0,0,0
						c0-0.3-0.2-0.7-0.2-1l0,0c0-0.1,0-0.2-0.1-0.2c0-0.1,0-0.3,0.1-0.5c0.1-0.2,0.3-0.2,0.5-0.2c0.1,0,0.1,0,0.2,0c0,0,0.1,0,0.1,0
						c0,0,0,0,0,0c-0.2-0.4-0.6-0.7-0.8-0.8c0,0-0.2-0.1-0.2-0.3c0-0.3,0.2-0.4,0.4-0.5c0,0,0.1,0,0.1,0c0.1,0,0.2-0.1,0.2-0.1
						c-0.3-0.2-1-0.7-1.5-0.9c-0.2-0.1-0.3-0.2-0.3-0.4l0,0c-0.1-0.4,0.4-0.6,1-0.9c0.1-0.1,0.3-0.1,0.4-0.2c0,0-0.1-0.1-0.1-0.1
						c-0.1-0.1-0.1-0.1-0.2-0.2c-0.2-0.2-0.4-0.3-0.4-0.6c0-0.1,0-0.4,0.3-0.5c0.2-0.1,0.4-0.4,0.6-0.7c0-0.1,0.1-0.1,0.1-0.2
						c0,0,0,0,0,0c-0.1,0-0.1-0.1-0.2-0.1c-0.2-0.1-0.8-0.1-1,0c-0.2,0.1-0.3,0-0.4,0c-0.1,0-0.2-0.1-0.2-0.3c0-0.2,0.1-0.5,0.2-1
						c-0.1,0-0.2,0-0.3,0c-0.4,0-2.1,0.3-2.7,0.6c-0.7,0.3-1.3,0.2-1.7-0.1c0,0.1,0.1,0.2,0.1,0.3c0.1,0.5-0.1,0.9-0.4,1.1
						c-1.5,1.4-2.1,2.5-2.4,3.2c-0.1,0.2-0.1,0.3-0.2,0.4c0,0,0,0.1,0,0.1c1-0.1,1.6-0.2,1.6,0.3c0,0.1,0,0.2-0.1,0.4
						C93.8,74.4,93.3,75.3,93.4,75.7z"/>
					
						<linearGradient id="SVGID_21_" gradientUnits="userSpaceOnUse" x1="326.0009" y1="-32.8713" x2="323.2525" y2="-30.5811" gradientTransform="matrix(0.7982 0.6023 -0.6023 0.7982 -180.2248 -113.5774)">
						<stop  offset="0" style="stop-color:#69AD0F"/>
						<stop  offset="0.3806" style="stop-color:#5BA00E"/>
						<stop  offset="1" style="stop-color:#3C830B"/>
					</linearGradient>
					<path class="st25" d="M94.4,62.5c0,0,0.3-1.2,1.7-1.1c0.7,0.1,2.4,0,2.9-0.2c0.5-0.2,0.8-0.1,0.5-0.5c-0.2-0.3-0.7-1-0.4-1
						c0.3,0,1,0,1.3-0.4c0.2-0.3,0.4-0.3,0.1-0.6c-0.3-0.3-0.7-0.7-1.1-0.7c-0.4,0-0.1-0.4,0.2-0.8c0.2-0.4,0.4-0.4,0-0.6
						c-0.4-0.1-1.8-0.2-1.3-0.6c0.5-0.3,1.1-1.2,1.3-1.5c0.2-0.3-0.2-0.4-0.5-0.4c-0.3,0-0.5,0-0.3-0.2c0.1-0.2,0.5-0.6,0.6-1.1
						c0.1-0.5,0-0.4-0.4-0.4c-0.4,0-0.6,0.3-0.6-0.4c0-0.7,0-1.5-0.2-1.5c-0.2-0.2-0.6,0.4-1,0.8c-0.4,0.5-0.4,0-0.7-0.4
						c-0.3-0.4-0.3-0.6-0.5-0.1c-0.2,0.5-0.2,1.2-0.2,1.5c0,0.3-0.1,0.1-0.4-0.2c-0.3-0.3-0.7-0.7-0.7-0.3c0,0.4,0.1,1.8,0.3,2.5
						c0.2,0.7-1.1-0.5-1.6-0.9c-0.5-0.3-0.4-0.1-0.4,0.4c0,0.6,0.1,1.2-0.4,0.8c-0.5-0.4-1.2-0.4-1.8-0.5c-0.6-0.1-0.4,0.1-0.3,0.7
						c0.1,0.6,0.9,1.4,1.3,1.6c0.4,0.2-0.7,0.4-1.2,0.5c-0.6,0.1-0.2,0.3,0.3,0.9c0.4,0.6,1.4,1.5,3.3,2.5c0.6,0.3,0.5,1.2,0.4,1.4
						C93.9,63.4,94.4,62.5,94.4,62.5z"/>
					
						<linearGradient id="SVGID_22_" gradientUnits="userSpaceOnUse" x1="657.4734" y1="800.1387" x2="658.9596" y2="797.5665" gradientTransform="matrix(0.1385 0.9903 -0.9903 0.1385 795.6799 -706.2834)">
						<stop  offset="0" style="stop-color:#69AD0F"/>
						<stop  offset="0.3806" style="stop-color:#5BA00E"/>
						<stop  offset="1" style="stop-color:#3C830B"/>
					</linearGradient>
					<path class="st26" d="M90.3,57.6c0.1,0.1,0.2,0.2,0.3,0.4c0.5,0.6,1.4,1.5,3.2,2.4c0.4,0.2,0.6,0.5,0.7,1c0,0.1,0,0.2,0,0.3
						c0.3-0.4,0.8-0.7,1.6-0.6c0.6,0.1,2.3,0,2.7-0.2c0.1,0,0.2-0.1,0.3-0.1c-0.3-0.4-0.5-0.7-0.5-0.9c0-0.2,0.1-0.3,0.1-0.3
						c0,0,0.2-0.1,0.3-0.1c0.3,0,0.8-0.1,1-0.3c0.1-0.1,0.1-0.1,0.2-0.2c0,0,0,0,0,0c0,0-0.1-0.1-0.1-0.1c-0.2-0.2-0.5-0.5-0.8-0.5
						c-0.4,0-0.5-0.3-0.5-0.4c0-0.2,0.1-0.4,0.3-0.7c0-0.1,0.1-0.1,0.1-0.2c0,0,0.1-0.1,0.1-0.1c-0.1,0-0.2-0.1-0.4-0.1
						c-0.6-0.1-1.1-0.2-1.2-0.6c0-0.1,0-0.3,0.2-0.4c0.4-0.3,1-1,1.2-1.3c-0.1,0-0.1,0-0.2,0c0,0-0.1,0-0.1,0c-0.2,0-0.5,0-0.5-0.3
						c0-0.2,0.1-0.3,0.1-0.3c0.1-0.2,0.4-0.6,0.5-1c0,0,0,0,0,0c0,0-0.1,0-0.1,0c-0.1,0-0.1,0-0.2,0c-0.1,0-0.3,0.1-0.5,0
						c-0.2-0.1-0.2-0.3-0.2-0.4c0-0.1,0-0.2,0-0.2l0,0c0-0.4,0-0.8,0-1.1c0,0,0,0,0,0c-0.2,0.2-0.4,0.4-0.5,0.6l0,0
						c-0.1,0.2-0.3,0.3-0.5,0.3c-0.3,0-0.4-0.3-0.5-0.4c0-0.1-0.1-0.2-0.2-0.3c0,0,0-0.1-0.1-0.1c-0.1,0.4-0.2,1-0.1,1.2
						c0,0.3-0.1,0.4-0.2,0.4c-0.2,0.1-0.4-0.1-0.6-0.3c0,0-0.1-0.1-0.1-0.1c-0.1-0.1-0.2-0.2-0.2-0.2c0,0.3,0,0.9,0.1,1.4
						c0,0.3,0.1,0.6,0.1,0.8c0,0,0,0.1,0,0.1c0,0.3-0.1,0.4-0.2,0.4c-0.3,0.2-0.7-0.1-1.4-0.7c-0.2-0.1-0.4-0.3-0.5-0.4
						c0,0.1,0,0.1,0,0.2c0,0.1,0,0.2,0,0.3c0,0.4,0,0.8-0.3,0.9c-0.3,0.1-0.5-0.1-0.6-0.1c-0.3-0.3-0.9-0.4-1.4-0.4
						c-0.1,0-0.2,0-0.3,0c0,0,0,0,0,0c0,0.1,0,0.2,0.1,0.4l0,0c0.1,0.5,0.8,1.2,1.1,1.4c0.1,0.1,0.2,0.2,0.2,0.3
						C91.8,57.3,91.2,57.4,90.3,57.6C90.3,57.5,90.3,57.6,90.3,57.6z"/>
					
						<linearGradient id="SVGID_23_" gradientUnits="userSpaceOnUse" x1="653.4789" y1="792.8322" x2="679.9415" y2="792.8322" gradientTransform="matrix(0.1385 0.9903 -0.9903 0.1385 795.6799 -706.2834)">
						<stop  offset="0" style="stop-color:#69AD0F"/>
						<stop  offset="0.3806" style="stop-color:#5BA00E"/>
						<stop  offset="1" style="stop-color:#3C830B"/>
					</linearGradient>
					<path class="st27" d="M101.3,77.1c0,0-3.5-6.3-4.9-8.2c-0.8-1.1-1.9-2.4-2.1-2.7c-0.2-0.2-0.4-0.8,0.1-1
						c1.3-0.1,2.9-0.2,4.4-0.4c0.8-0.1,3.7-0.5,5.8-0.8c5-0.8,10.5-1.8,10.9-1.8c0.7-0.1,0.1-0.2-0.1-0.2c0,0-8.6,1.1-11.1,1.4
						c-2.5,0.3-7.3,1-9.7,0.8c-0.1,0-0.2,0-0.3,0c-0.4-0.1-0.5-0.4-0.4-0.7c0.2-0.3,0.8-1.7,1.3-3c0.8-2.2,2.5-9.2,2.5-9.2
						c0.1-0.6-0.2,0-0.4,0.8c-0.5,1.9-1.2,4.2-1.8,6.1c-0.5,1.6-1.3,3.2-1.4,3.5c-0.3,0.8-1.2,2-1.9,2c0,0,0,0,0,0
						c-0.7-0.2-1.1-0.4-1.2-0.6c-0.3-0.3-0.9,0.2-1.1,0.8c-0.2,0.7,0.1,1,1.6,1.2c1,0.4,3,2.3,3.6,2.9c0.2,0.3,1.3,1.4,2.2,2.8
						c1.1,1.7,2.4,3.7,3.4,5.4C101.2,77.2,101.6,77.7,101.3,77.1z"/>
					<path class="st28" d="M91,64.4c0,0,2.2,1,6.6,0.3c3.6-0.4,1.1-0.3-0.2-0.2c-1.2,0.1-2.9,0.2-3.7-0.1c-0.3-0.1,0.3-1.3-0.1-1
						c-0.4,0.4-1,0.8-1.4,0.7c-0.4-0.1-1-0.3-1.1-0.4c-0.2-0.1-0.3-0.2-0.3-0.1c0,0.2,0.1,0.6,0,0.7C90.6,64.4,90.7,64.4,91,64.4z"
						/>
					
						<linearGradient id="SVGID_24_" gradientUnits="userSpaceOnUse" x1="334.6305" y1="-16.3768" x2="330.3953" y2="-24.4035" gradientTransform="matrix(0.7982 0.6023 -0.6023 0.7982 -180.2248 -113.5774)">
						<stop  offset="0" style="stop-color:#69AD0F"/>
						<stop  offset="0.4372" style="stop-color:#77B617"/>
						<stop  offset="1" style="stop-color:#8FC724"/>
					</linearGradient>
					<path class="st29" d="M96.5,71.7c0.3-1.2-0.6-2.2-0.6-2.2s-1.1,1.4-1.6,2.3c-0.5,0.9-0.4,1.1,0.1,1c0.4-0.1,0.5,0.6,0,1.8
						c-0.5,1.1,0.1,0.7,0.7,0C95.7,74,96.4,72.5,96.5,71.7z M97.4,74.1c0.3-0.1,0.7,0.2,0.8-0.1c0.1-0.3,0-0.7-0.2-1.3
						c-0.3-0.8-0.9-1.5-0.9-1.5s0,0.8-0.5,1.9c-0.5,1.1-0.3,2.4-0.3,2.3C96.3,75.3,97.1,74.2,97.4,74.1z M99.3,76
						c0.4,0.6,0.5,0.1,0.3-0.7c-0.2-0.8-0.8-1.4-1-1.7c0,0,0,1.5-0.1,2.4C98.4,76.8,98.8,75.5,99.3,76z"/>
					
						<linearGradient id="SVGID_25_" gradientUnits="userSpaceOnUse" x1="333.1713" y1="-23.1882" x2="336.0583" y2="-16.8366" gradientTransform="matrix(0.7982 0.6023 -0.6023 0.7982 -180.2248 -113.5774)">
						<stop  offset="0.2331" style="stop-color:#69AD0F"/>
						<stop  offset="0.5249" style="stop-color:#5BA00E"/>
						<stop  offset="1" style="stop-color:#3C830B"/>
					</linearGradient>
					<path class="st30" d="M100.5,69.9c0.7-0.3,1-0.6,0.1-0.5c-0.9,0.1-1-0.4-0.9-0.7c0.1-0.4,0.2-0.4-0.5-0.3
						c-0.7,0.1-2.4,0.7-2.4,0.7s0.4,0.9,1.3,1.1C98.6,70.2,99.8,70.2,100.5,69.9z M99.8,71.7c0.2-0.2,1.3-0.4,1.4-0.4
						c0.1,0-0.8-0.6-1.9-0.7c-1,0-1.6-0.3-1.6-0.3s0.3,0.7,0.8,1.3c0.4,0.4,0.6,0.6,0.9,0.6C99.7,72.3,99.6,71.9,99.8,71.7z
						 M100.8,74.2c-0.3-0.6,1.1-0.4,0.3-0.7c-0.8-0.3-2.1-1-2.1-1c0.2,0.3,0.5,1.1,1.1,1.6C100.7,74.7,101.1,74.8,100.8,74.2z"/>
					
						<linearGradient id="SVGID_26_" gradientUnits="userSpaceOnUse" x1="322.1015" y1="-27.2406" x2="316.8864" y2="-37.1246" gradientTransform="matrix(0.7982 0.6023 -0.6023 0.7982 -180.2248 -113.5774)">
						<stop  offset="0" style="stop-color:#69AD0F"/>
						<stop  offset="0.4372" style="stop-color:#77B617"/>
						<stop  offset="1" style="stop-color:#8FC724"/>
					</linearGradient>
					<path class="st31" d="M92.4,55.6c-0.7-0.5-1.5-0.7-0.7,0.2c0.8,0.9,0.9,1.6,0.5,1.7c-0.4,0.1-0.5,0.3,0.2,1
						c0.7,0.7,2.1,1.7,2.1,1.7s0.6-1.2,0-2.3C94.2,57.3,93.2,56.1,92.4,55.6z M93.4,54.5c0-0.1,0.1,1.2,0.9,2.1c0.8,0.9,1,1.7,1,1.7
						s0.4-0.8,0.4-1.7c0-0.6,0-1-0.2-1.3c-0.2-0.3-0.4,0.1-0.8,0.1C94.4,55.4,93.4,54.6,93.4,54.5z M95.3,53.4
						c0.3,0.8,0.7,2.3,0.7,2.3c0.1-0.4,0.5-1.2,0.5-2c0-0.8-0.2-1.3-0.4-0.6C95.8,53.7,95,52.6,95.3,53.4z"/>
					
						<linearGradient id="SVGID_27_" gradientUnits="userSpaceOnUse" x1="324.0262" y1="-33.8085" x2="327.3523" y2="-26.491" gradientTransform="matrix(0.7982 0.6023 -0.6023 0.7982 -180.2248 -113.5774)">
						<stop  offset="0.2331" style="stop-color:#69AD0F"/>
						<stop  offset="0.5249" style="stop-color:#5BA00E"/>
						<stop  offset="1" style="stop-color:#3C830B"/>
					</linearGradient>
					<path class="st32" d="M96.6,59.2c-0.8,0.4-0.9,1.4-0.9,1.4s1.7,0.1,2.5,0c0.8-0.1,0.7-0.1,0.4-0.4c-0.2-0.3-0.2-0.8,0.7-1
						c0.9-0.2,0.5-0.4-0.3-0.5C98.2,58.6,97.1,58.9,96.6,59.2z M97.2,56.7c-0.3,0.1-0.5,0.4-0.7,0.8c-0.4,0.7-0.4,1.4-0.4,1.4
						s0.5-0.5,1.5-0.8c1-0.3,1.7-1.2,1.6-1.1c-0.1,0.1-1.2,0.2-1.4,0C97.5,57,97.5,56.6,97.2,56.7z M97.4,54.7
						c-0.4,0.7-0.5,1.5-0.6,1.9c0,0,1-1,1.7-1.5c0.7-0.5-0.6,0-0.5-0.6C98.2,53.7,97.8,54,97.4,54.7z"/>
					
						<linearGradient id="SVGID_28_" gradientUnits="userSpaceOnUse" x1="341.3678" y1="-29.2967" x2="320.237" y2="-29.2967" gradientTransform="matrix(0.7982 0.6023 -0.6023 0.7982 -180.2248 -113.5774)">
						<stop  offset="0" style="stop-color:#69AD0F"/>
						<stop  offset="0.4372" style="stop-color:#77B617"/>
						<stop  offset="1" style="stop-color:#8FC724"/>
					</linearGradient>
					<path class="st33" d="M104.4,71.3c0.2-1-0.7-3.1-1.2-4c-0.4-0.9-1.2-2.3-3.1-2.1c0,0,1.2,1.2,1.7,3.1c0.5,1.9,0.5,3,0.7,2.6
						c0.2-0.4,0.9-0.7,1.2-0.1C104,71.3,104.2,72.3,104.4,71.3z M106.1,70.2c0.4,0.1,0.7,0.1,0.3-0.9c-0.4-1-0.4-1.5-0.7-2.3
						c-0.4-1.1-1.1-1.8-1.9-2c-0.7-0.2-1.9,0-1.9,0s1.8,1.2,2.4,3.6c0.6,2.4,0.7,2.4,1.2,2.8C106.2,71.9,105.7,70.2,106.1,70.2z
						 M107.2,64.3c0,0,0.5,0.4,0.9,1.7c0.4,1.3,0.6,1.7,0.7,1.2c0.1-0.4,0.7-0.9,1.2-0.3c0.4,0.6-0.1-0.8-0.4-1.6
						C109.1,64.6,108.5,64,107.2,64.3z M111.3,66.2c0,0-0.6-1.2-0.2-1.7c0.4-0.4-0.1-0.5-0.5-0.7c-0.4-0.2-1.4,0-1.8,0.1
						c0,0,0.9,0.7,1.3,1.5C110.4,66.3,111.3,66.2,111.3,66.2z M112.5,64.4c0.4,0.4,0.2-0.1,0.3-0.3c0-0.2,0.4-0.3,1.1-0.2
						c0.6,0.1-0.3-0.5-1.2-0.6c-0.9-0.2-2,0.3-1.7,0.3C111.3,63.6,112.3,64.2,112.5,64.4z"/>
					
						<linearGradient id="SVGID_29_" gradientUnits="userSpaceOnUse" x1="320.4369" y1="-32.5128" x2="340.3513" y2="-32.5128" gradientTransform="matrix(0.7982 0.6023 -0.6023 0.7982 -180.2248 -113.5774)">
						<stop  offset="0.2331" style="stop-color:#69AD0F"/>
						<stop  offset="0.5249" style="stop-color:#5BA00E"/>
						<stop  offset="1" style="stop-color:#3C830B"/>
					</linearGradient>
					<path class="st34" d="M102.3,60.7c0.2-1,0.4-3.3,0-4.2c-0.4-0.9-0.4,0.1-0.5,0.7c-0.1,0.6-0.8,0.5-1.1,0.2
						c-0.3-0.3-0.1,0.7,0,2.7c0.1,2-0.8,3.4-0.8,3.4C101.8,63.2,102.1,61.7,102.3,60.7z M103.1,59c0,2.5-1.3,4.1-1.3,4.1
						s1.1-0.1,1.8-0.5c0.7-0.4,1.1-1.3,1.2-2.5c0.1-0.8-0.1-1.3,0-2.3c0.1-1.1-0.1-0.9-0.5-0.8c-0.4,0.2-0.4-1.6-0.8-1.1
						C103.2,56.5,103.1,56.5,103.1,59z M107.3,60.6c-0.1,1.3-0.4,1.8-0.4,1.8c1.3-0.2,1.8-0.8,2-1.7c0.2-0.8,0.2-2.3,0-1.6
						c-0.2,0.7-1,0.5-1.2,0.1C107.5,58.8,107.4,59.3,107.3,60.6z M110.7,61.1c-0.5-0.3-0.3-1.7-0.3-1.7s-0.9,0.2-1,1.1
						c-0.1,0.9-0.8,1.8-0.8,1.8c0.4-0.1,1.4-0.1,1.8-0.4C110.7,61.7,111.2,61.4,110.7,61.1z M112.5,62c0.8-0.4,1.5-1.2,0.9-0.9
						c-0.5,0.3-1,0.3-1.1,0.1c-0.1-0.2-0.1-0.6-0.3-0.2c-0.1,0.2-1,1.1-1.3,1.2C110.4,62.3,111.7,62.4,112.5,62z"/>
					<path class="st35" d="M90.6,63.4c-0.1,0.1-0.6,0.4-0.7,0.9c-0.1,0.5,0.1,0.6,0.2,0.4c0.2-0.2,0.5-0.4,0.5-0.6
						C90.6,63.8,90.8,63.3,90.6,63.4z"/>
				</g>
			</g>
			<g>
				<g>
					
						<linearGradient id="SVGID_30_" gradientUnits="userSpaceOnUse" x1="-335.8772" y1="-500.6142" x2="-332.0436" y2="-500.6142" gradientTransform="matrix(-0.9656 -0.2601 0.2601 -0.9656 -116.6993 -499.7445)">
						<stop  offset="0" style="stop-color:#69AD0F"/>
						<stop  offset="0.3806" style="stop-color:#5BA00E"/>
						<stop  offset="1" style="stop-color:#3C830B"/>
					</linearGradient>
					<path class="st36" d="M71.6,64c0.3,0.4,0.4,0.7-0.1,0.8c-0.5,0.1-0.6,0.1,0,0.8c0.6,0.8,1.5,1,0.9,1.1
						c-0.6,0.1-0.9,0.1-0.5,0.5c0.4,0.4,1.5,1.1,2.3,1.7c0.8,0.6,0,1.5-0.4,0.9c-0.5-0.5-1.6-1.7-2.1-2c-0.5-0.3-0.7-0.6-0.7-0.2
						c0,0.5,0.1,1.4-0.1,1.1c-0.3-0.3-1-0.9-1.4-0.9c-0.4,0-0.6-0.2-0.4,0.3c0.2,0.5,0.3,1.1,0.7,1.5c0.4,0.4-0.2,0.3-0.6,0.4
						c-0.4,0.1-0.6,0-0.3,0.4c0.3,0.5,1.5,1.6,0.9,1.5c-0.6-0.1-1.7-0.1-2.1,0c-0.3,0.1,0,0.5,0.3,0.7c0.3,0.3,0.5,0.4,0.2,0.4
						c-0.2,0-0.8,0.1-1.2,0.4c-0.4,0.3-0.2,0.3,0.2,0.6c0.4,0.3,0.8,0.3,0.4,0.8c-0.4,0.5-0.8,1.1-0.6,1.2c0.1,0.2,0.8,0.1,1.4,0.1
						c0.6-0.1,0.4,0.3,0.4,0.8c0.1,0.5,0,0.7,0.4,0.4c0.5-0.2,0.8-0.7,0.9-0.9c0.1-0.2,0.2,0.1,0.2,0.4c0.1,0.4,0.3,0.9,0.5,0.6
						c0.2-0.2,0.8-1.2,1-1.8c0.2-0.6,0.6,1,0.8,1.5c0.2,0.5,0.2,0.3,0.5,0c0.3-0.3,0.5-0.8,0.7-0.3c0.1,0.5,0.6,0.9,1,1.3
						c0.4,0.4,0.3,0.2,0.5-0.2c0.2-0.4,0.1-1.3-0.1-1.7c-0.1-0.4,0.6,0.2,1,0.4c0.4,0.3,0.2-0.1,0.2-0.7c0-0.6-0.4-2.1-0.6-2.8
						c-0.2-0.7,0.9-0.9,1,0.1c0.1,0.9,0.2,2.3,0.3,2.8c0.1,0.5,0.3,0.3,0.7-0.2c0.4-0.5,0.1,0.4,0.5,1.3c0.3,0.9,0.3,0.7,0.7,0.4
						c0.4-0.4,0.5-0.2,0.8,0.3c0.2,0.5,0.8,1.4,1.1,1.2c0.3-0.2,0.5-1.3,0.4-1.8C81,77,81.4,77,81.8,77.3c0.4,0.3,0.9,1.1,1.1,0.1
						c0.2-1-1-1.7-0.3-1.7c0.7,0,1.3,0.8,1.2-0.3c0-1.1-0.7-2-1.2-2.8c-0.5-0.8-1-2.6-0.7-4c0.2-0.7,0.4-1.1,0.6-1.2L82.3,67
						c-0.2,0.1-0.7,0.1-1.4-0.1c-1.3-0.4-2.6-1.8-3.1-2.6c-0.5-0.8-0.8-1.8-1.8-2.4c-1-0.6-0.6,0.2-0.9,0.9
						c-0.3,0.6-0.3-0.8-1.3-1.1c-1-0.3-0.5,0.4-0.5,1c0,0.5-0.2,0.8-0.6,0.5c-0.4-0.3-1.5-0.7-1.7-0.6C70.8,62.6,71.3,63.6,71.6,64z
						"/>
					
						<linearGradient id="SVGID_31_" gradientUnits="userSpaceOnUse" x1="-134.9643" y1="929.2077" x2="-139.1447" y2="929.2077" gradientTransform="matrix(-0.4988 -0.8667 0.8667 -0.4988 -800.1685 414.8922)">
						<stop  offset="0" style="stop-color:#69AD0F"/>
						<stop  offset="0.3806" style="stop-color:#5BA00E"/>
						<stop  offset="1" style="stop-color:#3C830B"/>
					</linearGradient>
					<path class="st37" d="M77.3,64c-0.1-0.2-0.2-0.3-0.3-0.5c-0.2-0.4-0.6-0.9-1.1-1.3c-0.1-0.1-0.2-0.1-0.2-0.1c0,0.1,0,0.1,0,0.2
						c0,0.2-0.1,0.5-0.2,0.7c0,0.1-0.2,0.3-0.4,0.3c-0.2,0-0.4-0.2-0.4-0.3c0,0-0.1-0.1-0.1-0.1c0-0.1-0.1-0.1-0.1-0.2
						c-0.1-0.2-0.3-0.5-0.7-0.6c-0.1,0-0.2,0-0.2-0.1c0,0.1,0,0.2,0,0.3c0,0.1,0.1,0.3,0.1,0.5c0,0.6-0.2,0.8-0.4,0.9
						c-0.1,0.1-0.4,0.1-0.7-0.2c-0.3-0.2-1-0.5-1.3-0.5c0,0.1,0.1,0.4,0.3,0.7c0.1,0.1,0.2,0.3,0.2,0.3c0.1,0.1,0.1,0.2,0.2,0.3
						c0,0.1,0.2,0.3,0.1,0.6c-0.1,0.3-0.4,0.3-0.6,0.4c0,0-0.1,0-0.1,0c0.1,0.1,0.1,0.2,0.2,0.3c0.2,0.3,0.5,0.5,0.7,0.7
						c0.2,0.1,0.3,0.2,0.4,0.3c0.1,0.1,0.1,0.2,0,0.3C72.7,67,72.5,67,72.4,67c-0.1,0-0.2,0-0.3,0.1c0.2,0.2,0.7,0.5,1.2,0.9
						c0.4,0.3,0.7,0.5,1.1,0.8c0.1,0.1,0.2,0.2,0.3,0.4c0.3,0.5,0.1,0.9-0.2,1.2c-0.3,0.2-0.7,0.2-1-0.1c-0.4-0.5-1.6-1.6-2-1.9
						c-0.1-0.1-0.2-0.1-0.2-0.1c0.1,0.7,0,1-0.2,1.2c-0.1,0-0.3,0.1-0.5-0.1c-0.3-0.3-0.9-0.8-1.2-0.8c-0.1,0-0.1,0-0.1,0
						c0,0.1,0,0.1,0,0.2c0.1,0.3,0.2,0.7,0.3,0.9c0.1,0.1,0.1,0.2,0.2,0.2c0.1,0.1,0.1,0.1,0.1,0.2c0.1,0.2,0.1,0.3,0,0.4
						c-0.1,0.2-0.4,0.3-0.7,0.3c-0.1,0-0.2,0-0.2,0c0,0,0,0-0.1,0c0.1,0.1,0.2,0.3,0.4,0.4c0.3,0.3,0.5,0.6,0.7,0.8
						c0.1,0.2,0.1,0.4,0,0.5c-0.1,0.1-0.2,0.2-0.5,0.1c-0.5-0.1-1.3-0.1-1.7-0.1c0.1,0.1,0.1,0.2,0.2,0.2c0,0,0.1,0.1,0.1,0.1
						c0.1,0.1,0.2,0.2,0.3,0.3c0.1,0.1,0.1,0.2,0,0.4c-0.1,0.1-0.2,0.2-0.4,0.2c-0.2,0-0.7,0.1-1,0.3c0,0,0.1,0.1,0.1,0.1
						c0.1,0.1,0.2,0.1,0.3,0.2c0.1,0.1,0.3,0.2,0.4,0.3l0,0c0.2,0.3-0.1,0.6-0.1,0.7l0,0c-0.2,0.2-0.5,0.6-0.6,0.9
						c0.2,0,0.7,0,1-0.1l0,0c0.1,0,0.5-0.1,0.7,0.2c0.1,0.1,0.1,0.3,0.1,0.5c0,0.1,0,0.2,0,0.3c0,0.1,0,0.1,0,0.2
						c0.4-0.2,0.7-0.6,0.8-0.7c0.1-0.1,0.2-0.2,0.3-0.2c0.1,0,0.2,0.1,0.3,0.2c0.1,0.1,0.1,0.2,0.1,0.4c0,0,0,0.1,0,0.2
						c0,0.1,0.1,0.2,0.1,0.3c0.3-0.4,0.7-1.1,0.8-1.5c0.1-0.3,0.2-0.3,0.4-0.3c0.2,0,0.3,0.1,0.4,0.3c0.1,0.2,0.3,0.6,0.4,1
						c0.1,0.2,0.1,0.4,0.2,0.5c0,0,0,0,0,0c0.1-0.1,0.1-0.1,0.1-0.2c0.2-0.2,0.3-0.5,0.6-0.4c0.1,0,0.2,0,0.3,0.2l0,0
						c0,0.1,0.1,0.1,0.1,0.2c0,0.1,0.1,0.2,0.1,0.3c0.2,0.3,0.4,0.5,0.6,0.8c0,0,0.1,0.1,0.1,0.1c0,0,0-0.1,0.1-0.1
						c0.1-0.2,0-1-0.1-1.4c-0.1-0.3,0-0.4,0.1-0.5c0.2-0.2,0.5,0,1.1,0.4c0-0.1,0-0.2,0-0.3c0-0.6-0.4-2.1-0.6-2.7
						c-0.1-0.4,0-0.7,0.4-0.9c0.3-0.2,0.8-0.1,1.1,0.4c0.1,0.1,0.1,0.3,0.1,0.5c0.1,0.4,0.1,0.9,0.1,1.3c0,0.6,0.1,1.1,0.2,1.4
						c0.1-0.1,0.1-0.2,0.2-0.2c0.1-0.1,0.2-0.3,0.4-0.2c0.1,0,0.2,0.1,0.3,0.2l0,0c0.1,0.1,0.1,0.3,0.1,0.5c0,0.3,0.1,0.6,0.2,1
						c0,0.1,0.1,0.2,0.1,0.3c0,0,0,0,0.1-0.1c0.1-0.1,0.4-0.3,0.6-0.3c0.3,0,0.4,0.3,0.5,0.4c0,0.1,0.1,0.2,0.1,0.3
						c0,0.1,0.1,0.2,0.2,0.4c0.2,0.3,0.4,0.5,0.5,0.6c0.1-0.3,0.3-1,0.2-1.4c-0.1-0.4,0.1-0.6,0.2-0.7c0.1-0.1,0.4-0.2,0.9,0.1
						c0.1,0.1,0.2,0.2,0.4,0.3c0.1,0.1,0.1,0.1,0.2,0.2c0,0,0-0.1,0-0.2c0.1-0.3-0.1-0.7-0.2-0.9c0-0.1-0.1-0.1-0.1-0.2
						c0-0.1-0.1-0.1-0.1-0.1c-0.1-0.1-0.2-0.3-0.1-0.5c0.1-0.2,0.4-0.2,0.5-0.2c0.3,0,0.5,0.1,0.7,0.2c0,0,0.1,0,0.2,0.1
						c0-0.1,0-0.1,0-0.3c0-0.7-0.3-1.2-0.5-1.6c-0.1-0.2-0.2-0.3-0.3-0.5c-0.1-0.2-0.2-0.3-0.3-0.5c-0.5-0.8-1.1-2.8-0.7-4.2
						c0-0.1,0.1-0.3,0.1-0.4l0.1-0.6l-0.6-0.2c-0.1,0-0.3-0.1-0.4-0.1c-1.4-0.4-2.8-1.9-3.3-2.7C77.5,64.3,77.4,64.1,77.3,64z"/>
					
						<linearGradient id="SVGID_32_" gradientUnits="userSpaceOnUse" x1="-333.2436" y1="-492.3394" x2="-335.432" y2="-487.9117" gradientTransform="matrix(-0.9656 -0.2601 0.2601 -0.9656 -116.6993 -499.7445)">
						<stop  offset="0" style="stop-color:#69AD0F"/>
						<stop  offset="0.3806" style="stop-color:#5BA00E"/>
						<stop  offset="1" style="stop-color:#3C830B"/>
					</linearGradient>
					<path class="st38" d="M75.5,55.7c0,0.5,0.3,0.9-0.3,0.8c-0.6-0.1-1.2-0.3-1.3-0.1c-0.1,0.2,0.4,0.8,0.8,1.3
						c0.4,0.5,0,0.5-0.3,0.7c-0.3,0.2-0.5,0.2-0.1,0.5c0.4,0.3,0.9,0.5,1.2,0.5c0.2,0,0.1,0.2-0.2,0.4c-0.2,0.2-0.5,0.5-0.2,0.7
						c0.3,0.1,1.4,0.4,1.9,0.3c0.6,0-0.4,0.9-0.7,1.2c-0.2,0.4-0.1,0.3,0.3,0.5c0.4,0.2,0.9,0.2,0.6,0.5c-0.3,0.3-0.3,0.8-0.4,1.2
						c-0.1,0.4,0.1,0.3,0.5,0.4c0.4,0.1,1-0.3,1.2-0.5c0.2-0.2,0.2,0.6,0.3,1c0,0.4,0.2,0.2,0.7,0c0.5-0.2,1.9-1.1,2.4-1.6
						c1-1,2-0.2,2-0.2s0.9,0.5-0.1-0.5c-0.2-0.1-0.8-0.8-0.5-1.4c0.9-1.9,1.1-3.2,1.1-4c0-0.7,0.2-1.2-0.3-0.9
						c-0.5,0.3-1.4,0.8-1.3,0.4c0.2-0.4,0.3-1.6,0-2.1c-0.3-0.5-0.2-0.8-0.7-0.3c-0.4,0.5-1,0.9-1.1,1.5c-0.1,0.6-0.4,0-0.8-0.4
						c-0.4-0.4-0.4-0.7-0.6-0.1c-0.2,0.6-0.5,2.4-0.7,1.7c-0.3-0.7-1-1.8-1.3-2.1c-0.3-0.3-0.4,0.3-0.4,0.7c0,0.4,0,0.7-0.2,0.4
						c-0.2-0.2-0.6-0.8-1.1-1C75.3,55,75.4,55.2,75.5,55.7z"/>
					
						<linearGradient id="SVGID_33_" gradientUnits="userSpaceOnUse" x1="-129.2604" y1="941.8356" x2="-130.5928" y2="939.0163" gradientTransform="matrix(-0.4988 -0.8667 0.8667 -0.4988 -800.1685 414.8922)">
						<stop  offset="0.2331" style="stop-color:#69AD0F"/>
						<stop  offset="0.5249" style="stop-color:#5BA00E"/>
						<stop  offset="1" style="stop-color:#3C830B"/>
					</linearGradient>
					<path class="st39" d="M82.5,55.2L82.5,55.2c-0.1-0.1-0.1-0.2-0.2-0.3c0,0,0,0,0,0c-0.1,0.1-0.1,0.1-0.2,0.2
						c-0.4,0.4-0.7,0.8-0.8,1.2c0,0.1-0.1,0.4-0.4,0.5c-0.3,0.1-0.5-0.2-0.8-0.5C80.1,56.1,80,56,79.9,56c0,0-0.1-0.1-0.1-0.1
						c0,0.1-0.1,0.4-0.1,0.6c-0.2,0.9-0.3,1.3-0.7,1.4c-0.1,0-0.3,0-0.4-0.2c0,0,0-0.1-0.1-0.1c-0.1-0.2-0.2-0.4-0.4-0.7
						c-0.3-0.5-0.6-0.9-0.8-1.2c0,0.1,0,0.2,0,0.3c0,0.1,0,0.1,0,0.2c0,0.3,0,0.6-0.3,0.6c-0.1,0-0.3,0-0.4-0.2
						c-0.1-0.2-0.5-0.6-0.9-0.9c0,0,0,0.1,0,0.1c0,0.1,0,0.2,0,0.3c0,0.2,0.1,0.5-0.1,0.6c-0.2,0.2-0.4,0.1-0.6,0.1l0,0
						c-0.2,0-0.6-0.1-0.8-0.2c0,0,0,0,0,0c0.1,0.2,0.4,0.6,0.6,0.9l0,0c0.1,0.1,0.1,0.1,0.1,0.2c0,0.1,0.1,0.3,0.1,0.5
						c-0.1,0.2-0.2,0.3-0.4,0.3c-0.1,0-0.1,0.1-0.2,0.1c0,0,0,0-0.1,0c0,0,0,0,0,0c0.4,0.3,0.8,0.4,1,0.5c0.1,0,0.2,0,0.3,0.2
						c0.2,0.3-0.1,0.5-0.2,0.6c0,0-0.1,0.1-0.1,0.1c-0.1,0.1-0.1,0.1-0.2,0.2c0.4,0.1,1.2,0.3,1.7,0.3c0.3,0,0.4,0.1,0.4,0.2l0,0
						c0.2,0.3-0.1,0.7-0.6,1.2c-0.1,0.1-0.2,0.2-0.3,0.3c0,0,0.1,0,0.1,0.1c0.1,0,0.2,0.1,0.2,0.1c0.3,0.1,0.5,0.2,0.6,0.4
						c0,0.1,0.1,0.3-0.1,0.6c-0.2,0.2-0.2,0.5-0.3,0.9c0,0.1,0,0.1,0,0.2c0,0,0,0,0,0c0.1,0,0.1,0,0.2,0c0.2,0.1,0.7-0.2,0.9-0.4
						c0.1-0.1,0.3-0.1,0.3-0.1c0.1,0,0.2,0,0.3,0.2c0.1,0.2,0.1,0.5,0.2,1c0.1,0,0.2-0.1,0.3-0.1c0.4-0.1,1.8-1.1,2.3-1.5
						c0.5-0.5,1.1-0.6,1.6-0.5c-0.1-0.1-0.1-0.2-0.2-0.3c-0.2-0.4-0.3-0.8-0.1-1.2c0.9-1.8,1-3.1,1-3.8c0-0.2,0-0.3,0-0.5
						c0,0,0-0.1,0-0.1c-0.8,0.5-1.4,0.7-1.6,0.3c-0.1-0.1-0.1-0.2,0-0.4C82.6,56.6,82.7,55.6,82.5,55.2z"/>
					
						<linearGradient id="SVGID_34_" gradientUnits="userSpaceOnUse" x1="-343.1555" y1="-503.1488" x2="-345.9038" y2="-500.8586" gradientTransform="matrix(-0.9656 -0.2601 0.2601 -0.9656 -116.6993 -499.7445)">
						<stop  offset="0" style="stop-color:#69AD0F"/>
						<stop  offset="0.3806" style="stop-color:#5BA00E"/>
						<stop  offset="1" style="stop-color:#3C830B"/>
					</linearGradient>
					<path class="st40" d="M86.6,67.8c0,0,0.2,1.3-1.1,1.6c-0.7,0.2-2.2,0.9-2.6,1.3c-0.4,0.3-0.7,0.4-0.3,0.6
						c0.3,0.2,1.1,0.7,0.8,0.7c-0.3,0.1-0.9,0.4-1,0.8c-0.1,0.4-0.3,0.5,0.1,0.6c0.4,0.1,0.9,0.4,1.3,0.2c0.4-0.1,0.2,0.3,0.1,0.8
						C83.7,74.9,83.6,75,84,75c0.4,0,1.7-0.5,1.4,0c-0.3,0.5-0.6,1.5-0.7,1.8c0,0.3,0.4,0.3,0.6,0.2c0.3-0.1,0.5-0.2,0.4,0
						c-0.1,0.2-0.2,0.7-0.1,1.3c0.1,0.5,0.1,0.4,0.5,0.2c0.4-0.2,0.5-0.5,0.7,0.1c0.3,0.6,0.6,1.3,0.8,1.3c0.2,0.1,0.4-0.6,0.6-1.1
						c0.2-0.6,0.4-0.2,0.8,0.1c0.4,0.3,0.6,0.5,0.6-0.1c0-0.6-0.2-1.2-0.4-1.4c-0.1-0.3,0.1-0.1,0.5,0.1c0.4,0.2,0.9,0.4,0.8,0
						c-0.1-0.4-0.7-1.6-1.2-2.2c-0.5-0.6,1.2,0.1,1.8,0.2c0.6,0.1,0.4,0,0.2-0.6c-0.2-0.5-0.5-1.1,0-0.9c0.6,0.2,1.2,0,1.9-0.2
						c0.6-0.1,0.3-0.2,0.1-0.8c-0.3-0.5-1.3-1-1.8-1.1c-0.4-0.1,0.5-0.6,1-0.9c0.5-0.3,0-0.4-0.6-0.7c-0.6-0.4-1.8-0.9-4-1.1
						c-0.7-0.1-0.9-0.9-0.9-1.1C86.6,66.8,86.6,67.8,86.6,67.8z"/>
					
						<linearGradient id="SVGID_35_" gradientUnits="userSpaceOnUse" x1="-148.2357" y1="940.7686" x2="-146.7496" y2="938.1964" gradientTransform="matrix(-0.4988 -0.8667 0.8667 -0.4988 -800.1685 414.8922)">
						<stop  offset="0" style="stop-color:#69AD0F"/>
						<stop  offset="0.3806" style="stop-color:#5BA00E"/>
						<stop  offset="1" style="stop-color:#3C830B"/>
					</linearGradient>
					<path class="st41" d="M92.1,70.8c-0.1-0.1-0.3-0.1-0.4-0.2c-0.6-0.4-1.8-0.9-3.8-1c-0.4,0-0.8-0.3-1-0.7
						c-0.1-0.1-0.1-0.2-0.1-0.3c-0.2,0.5-0.5,0.9-1.3,1.1c-0.6,0.2-2.2,0.9-2.5,1.2C83,71,82.9,71,82.8,71.1
						c0.4,0.3,0.7,0.5,0.8,0.6c0.1,0.2,0.1,0.3,0,0.3c0,0.1-0.1,0.2-0.3,0.2c-0.3,0.1-0.7,0.4-0.8,0.6c0,0.1-0.1,0.2-0.1,0.2
						c0,0,0,0,0,0c0.1,0,0.1,0,0.2,0.1c0.3,0.1,0.7,0.2,0.9,0.2c0.4-0.1,0.5,0.1,0.6,0.2c0.1,0.2,0.1,0.4,0,0.7c0,0.1,0,0.2,0,0.2
						c0,0.1,0,0.1,0,0.2c0.1,0,0.2,0,0.4-0.1c0.6-0.1,1.1-0.2,1.3,0.1c0.1,0.1,0.1,0.3,0,0.5c-0.2,0.4-0.5,1.2-0.6,1.6
						c0.1,0,0.1,0,0.2,0c0,0,0.1,0,0.1,0c0.2-0.1,0.5-0.2,0.6,0.1c0.1,0.1,0,0.3,0,0.4c-0.1,0.2-0.2,0.7-0.1,1.1c0,0,0,0,0,0
						c0,0,0,0,0.1,0c0.1,0,0.1-0.1,0.2-0.1c0.1-0.1,0.3-0.2,0.5-0.1c0.2,0,0.3,0.2,0.4,0.3c0,0.1,0.1,0.1,0.1,0.2l0,0
						c0.1,0.3,0.3,0.7,0.4,1c0,0,0,0,0,0c0.1-0.2,0.2-0.6,0.3-0.8l0,0c0.1-0.2,0.2-0.4,0.4-0.5c0.2-0.1,0.4,0.1,0.6,0.2
						c0.1,0.1,0.2,0.1,0.3,0.2c0,0,0.1,0,0.1,0.1c0-0.5-0.2-1-0.3-1.2c-0.1-0.2,0-0.4,0-0.5c0.2-0.2,0.4-0.1,0.7,0.1
						c0,0,0.1,0,0.2,0.1c0.1,0.1,0.2,0.1,0.3,0.1c-0.1-0.3-0.4-0.8-0.6-1.3c-0.2-0.3-0.3-0.5-0.4-0.7c0,0,0-0.1-0.1-0.1
						c-0.1-0.2,0-0.4,0-0.5c0.2-0.3,0.6-0.2,1.5,0.1c0.2,0.1,0.4,0.1,0.6,0.2c0,0,0-0.1-0.1-0.2c0-0.1-0.1-0.2-0.1-0.3
						c-0.2-0.4-0.3-0.7-0.1-0.9c0.2-0.2,0.5-0.1,0.6-0.1c0.4,0.1,0.9,0,1.4-0.1c0.1,0,0.2,0,0.3-0.1c0,0,0,0,0,0
						c-0.1-0.1-0.1-0.2-0.2-0.3l0,0c-0.2-0.4-1.1-0.8-1.6-0.9c-0.1,0-0.3-0.1-0.3-0.2C90.9,71.7,91.4,71.4,92.1,70.8
						C92.2,70.9,92.2,70.8,92.1,70.8z"/>
					
						<linearGradient id="SVGID_36_" gradientUnits="userSpaceOnUse" x1="-152.2303" y1="933.4621" x2="-125.7677" y2="933.4621" gradientTransform="matrix(-0.4988 -0.8667 0.8667 -0.4988 -800.1685 414.8922)">
						<stop  offset="0" style="stop-color:#69AD0F"/>
						<stop  offset="0.3806" style="stop-color:#5BA00E"/>
						<stop  offset="1" style="stop-color:#3C830B"/>
					</linearGradient>
					<path class="st42" d="M74.6,56.8c0,0,5.6,4.5,7.6,5.7c1.1,0.7,2.7,1.5,3,1.7c0.3,0.1,0.6,0.6,0.3,1c-1.2,0.6-2.6,1.3-3.9,2
						c-0.7,0.4-3.2,1.8-5.1,2.9c-4.3,2.6-9.1,5.5-9.4,5.8c-0.6,0.4-0.1,0.2,0.1,0.1c0,0,7.6-4.2,9.7-5.4c2.2-1.3,6.4-3.6,8.7-4.4
						c0.1,0,0.2-0.1,0.3-0.1c0.5,0,0.6,0.2,0.6,0.5c0,0.3-0.1,1.9-0.1,3.2c0,2.4,1.1,9.5,1.1,9.5c0.2,0.6,0.2-0.1,0.1-0.9
						c-0.2-1.9-0.5-4.3-0.6-6.4c-0.1-1.7,0-3.4,0-3.8c0-0.9,0.3-2.3,1-2.6c0,0,0,0,0,0c0.7-0.1,1.1,0,1.3,0.1
						c0.4,0.2,0.7-0.5,0.7-1.2c-0.1-0.7-0.5-0.9-2-0.5c-1.1,0-3.7-1-4.4-1.4c-0.3-0.2-1.7-0.8-3.1-1.8c-1.7-1.1-3.7-2.5-5.2-3.7
						C74.8,56.7,74.2,56.4,74.6,56.8z"/>
					<path class="st28" d="M89,64.8c0,0-2.4-0.1-6.2,2.2c-3.2,1.7-0.9,0.7,0.2,0.1c1.1-0.5,2.7-1.3,3.5-1.3c0.3,0,0.2,1.3,0.4,0.9
						c0.2-0.5,0.6-1.1,1.1-1.2c0.4-0.1,1-0.1,1.2,0c0.2,0,0.4,0.1,0.3,0c0-0.2-0.3-0.5-0.2-0.7C89.3,64.6,89.2,64.6,89,64.8z"/>
					
						<linearGradient id="SVGID_37_" gradientUnits="userSpaceOnUse" x1="-334.5259" y1="-486.6544" x2="-338.7611" y2="-494.681" gradientTransform="matrix(-0.9656 -0.2601 0.2601 -0.9656 -116.6993 -499.7445)">
						<stop  offset="0" style="stop-color:#69AD0F"/>
						<stop  offset="0.4372" style="stop-color:#77B617"/>
						<stop  offset="1" style="stop-color:#8FC724"/>
					</linearGradient>
					<path class="st43" d="M81.1,60c0.2,1.2,1.4,1.8,1.4,1.8s0.5-1.7,0.6-2.7c0.1-1,0-1.1-0.4-0.9c-0.4,0.2-0.7-0.4-0.7-1.6
						c0.1-1.2-0.4-0.6-0.7,0.2C81.1,57.7,81,59.2,81.1,60z M79.4,58.1c-0.3,0.2-0.7,0-0.7,0.4c0,0.4,0.2,0.7,0.6,1.1
						c0.6,0.7,1.4,1.1,1.4,1.1s-0.3-0.7-0.2-1.9c0.1-1.2-0.6-2.3-0.6-2.2C80,56.7,79.7,57.9,79.4,58.1z M77,57.1
						c-0.6-0.3-0.5,0.1,0,0.8c0.5,0.6,1.3,1,1.6,1.2c0,0-0.6-1.4-0.8-2.2C77.5,56,77.6,57.4,77,57.1z"/>
					
						<linearGradient id="SVGID_38_" gradientUnits="userSpaceOnUse" x1="-335.9851" y1="-493.4657" x2="-333.098" y2="-487.1141" gradientTransform="matrix(-0.9656 -0.2601 0.2601 -0.9656 -116.6993 -499.7445)">
						<stop  offset="0.2331" style="stop-color:#69AD0F"/>
						<stop  offset="0.5249" style="stop-color:#5BA00E"/>
						<stop  offset="1" style="stop-color:#3C830B"/>
					</linearGradient>
					<path class="st44" d="M78.2,63.2c-0.5,0.5-0.7,1,0.1,0.5c0.8-0.4,1.1-0.1,1.1,0.4c0,0.4-0.1,0.5,0.6,0.1
						c0.6-0.4,1.9-1.5,1.9-1.5s-0.7-0.7-1.6-0.5C79.7,62.3,78.7,62.7,78.2,63.2z M78.1,61.3c-0.1,0.3-1.1,0.8-1.2,0.9
						c-0.1,0,1,0.3,2-0.1c1-0.4,1.6-0.3,1.6-0.3s-0.5-0.6-1.2-0.9c-0.5-0.2-0.8-0.3-1.1-0.2C77.9,60.7,78.2,61,78.1,61.3z
						 M76.2,59.3c0.5,0.5-0.8,0.8,0,0.8c0.8,0,2.3,0.1,2.3,0.1c-0.3-0.2-0.9-0.8-1.6-1.1C76.2,58.9,75.7,58.9,76.2,59.3z"/>
					
						<linearGradient id="SVGID_39_" gradientUnits="userSpaceOnUse" x1="-347.0548" y1="-497.5182" x2="-352.27" y2="-507.4021" gradientTransform="matrix(-0.9656 -0.2601 0.2601 -0.9656 -116.6993 -499.7445)">
						<stop  offset="0" style="stop-color:#69AD0F"/>
						<stop  offset="0.4372" style="stop-color:#77B617"/>
						<stop  offset="1" style="stop-color:#8FC724"/>
					</linearGradient>
					<path class="st45" d="M90.9,73.4c0.8,0.1,1.6,0.1,0.5-0.4c-1.1-0.6-1.5-1.2-1.1-1.4c0.4-0.2,0.3-0.4-0.6-0.8
						c-0.9-0.4-2.6-0.8-2.6-0.8s-0.1,1.3,0.8,2.1C88.7,72.6,90.1,73.3,90.9,73.4z M90.5,74.8c0.1,0.1-0.6-1.1-1.6-1.6
						c-1.1-0.5-1.6-1.2-1.6-1.2s-0.1,0.9,0.2,1.7c0.2,0.6,0.4,0.9,0.7,1.1c0.3,0.2,0.4-0.3,0.7-0.4C89.1,74.4,90.4,74.7,90.5,74.8z
						 M89.1,76.6c-0.6-0.6-1.5-1.8-1.5-1.8c0,0.4,0,1.3,0.3,2c0.3,0.7,0.6,1.1,0.6,0.4C88.5,76.5,89.7,77.2,89.1,76.6z"/>
					
						<linearGradient id="SVGID_40_" gradientUnits="userSpaceOnUse" x1="-345.1302" y1="-504.086" x2="-341.804" y2="-496.7686" gradientTransform="matrix(-0.9656 -0.2601 0.2601 -0.9656 -116.6993 -499.7445)">
						<stop  offset="0.2331" style="stop-color:#69AD0F"/>
						<stop  offset="0.5249" style="stop-color:#5BA00E"/>
						<stop  offset="1" style="stop-color:#3C830B"/>
					</linearGradient>
					<path class="st46" d="M85.8,71.7c0.6-0.7,0.3-1.6,0.3-1.6s-1.6,0.6-2.3,0.9c-0.7,0.4-0.6,0.3-0.2,0.5c0.3,0.2,0.5,0.6-0.3,1.1
						c-0.8,0.5-0.3,0.5,0.4,0.4C84.5,72.9,85.4,72.1,85.8,71.7z M86.1,74.2c0.2-0.2,0.3-0.6,0.3-1.1c0.1-0.7-0.1-1.5-0.1-1.5
						s-0.3,0.6-1.1,1.3c-0.8,0.6-1.1,1.7-1.1,1.7c0.1-0.1,1-0.6,1.3-0.6C85.7,74.1,85.9,74.5,86.1,74.2z M86.7,76.2
						c0.1-0.8-0.1-1.6-0.2-1.9c0,0-0.6,1.3-1,2C85,77,86,76,86.2,76.7C86.3,77.3,86.6,76.9,86.7,76.2z"/>
					
						<linearGradient id="SVGID_41_" gradientUnits="userSpaceOnUse" x1="-327.7886" y1="-499.5742" x2="-348.9193" y2="-499.5742" gradientTransform="matrix(-0.9656 -0.2601 0.2601 -0.9656 -116.6993 -499.7445)">
						<stop  offset="0" style="stop-color:#69AD0F"/>
						<stop  offset="0.4372" style="stop-color:#77B617"/>
						<stop  offset="1" style="stop-color:#8FC724"/>
					</linearGradient>
					<path class="st47" d="M74,63.4c0.2,1,1.8,2.6,2.6,3.3c0.7,0.7,2,1.7,3.6,0.8c0,0-1.5-0.6-2.7-2.3c-1.2-1.6-1.6-2.6-1.7-2.1
						c-0.1,0.4-0.5,0.9-1,0.6C74.3,63.2,73.8,62.4,74,63.4z M72.8,65c-0.4,0.1-0.7,0.1,0.1,0.9c0.8,0.8,0.9,1.2,1.5,1.8
						c0.8,0.9,1.7,1.3,2.5,1.2c0.7-0.1,1.7-0.7,1.7-0.7s-2.1-0.4-3.6-2.4c-1.5-2-1.6-1.9-2.2-2.2C72.1,63.5,73.2,64.9,72.8,65z
						 M74,71c0,0-0.6-0.2-1.4-1.2c-0.9-1-1.2-1.3-1.1-0.9c0.1,0.4-0.4,1.1-1,0.7c-0.6-0.4,0.4,0.7,1,1.3C72.1,71.4,72.9,71.6,74,71z
						 M69.4,70.7c0,0,1,0.9,0.8,1.5c-0.2,0.6,0.3,0.5,0.8,0.4c0.5,0,1.3-0.6,1.7-0.8c0,0-1.1-0.3-1.7-0.9
						C70.3,70.3,69.4,70.7,69.4,70.7z M69.1,72.9c-0.5-0.2-0.2,0.2-0.1,0.4c0,0.2-0.3,0.5-0.9,0.6c-0.6,0.1,0.4,0.3,1.3,0.2
						c0.9-0.2,1.8-1,1.5-0.9C70.5,73.1,69.3,73,69.1,72.9z"/>
					
						<linearGradient id="SVGID_42_" gradientUnits="userSpaceOnUse" x1="-348.7195" y1="-502.7903" x2="-328.8051" y2="-502.7903" gradientTransform="matrix(-0.9656 -0.2601 0.2601 -0.9656 -116.6993 -499.7445)">
						<stop  offset="0.2331" style="stop-color:#69AD0F"/>
						<stop  offset="0.5249" style="stop-color:#5BA00E"/>
						<stop  offset="1" style="stop-color:#3C830B"/>
					</linearGradient>
					<path class="st48" d="M79.9,72.4c0.2,1,0.8,3.2,1.6,3.9c0.8,0.7,0.3-0.2,0.2-0.8c-0.1-0.6,0.6-0.8,1-0.6c0.4,0.2-0.2-0.7-1-2.5
						c-0.8-1.8-0.6-3.5-0.6-3.5C79.4,69.9,79.7,71.5,79.9,72.4z M79.8,74.3c-1-2.3-0.3-4.3-0.3-4.3s-1,0.5-1.5,1.1
						c-0.5,0.6-0.6,1.6-0.2,2.7c0.2,0.8,0.6,1.1,0.9,2.2c0.3,1.1,0.4,0.8,0.8,0.5c0.3-0.3,1,1.4,1.1,0.7
						C80.6,76.6,80.7,76.6,79.8,74.3z M75.3,74.4c-0.4-1.3-0.3-1.9-0.3-1.9c-1.2,0.6-1.4,1.4-1.2,2.3c0.2,0.8,0.7,2.3,0.6,1.5
						c0-0.8,0.7-0.8,1.1-0.5C75.8,76.1,75.7,75.6,75.3,74.4z M71.9,75.2c0.6,0.1,0.9,1.4,0.9,1.4s0.8-0.5,0.5-1.4
						c-0.2-0.9,0.1-2,0.1-2c-0.3,0.2-1.3,0.7-1.5,1C71.7,74.7,71.3,75.1,71.9,75.2z M70,75.1c-0.6,0.7-0.9,1.7-0.5,1.2
						c0.4-0.5,0.8-0.6,1-0.5c0.1,0.1,0.3,0.6,0.4,0.1c0-0.3,0.5-1.4,0.7-1.6C71.7,74,70.6,74.4,70,75.1z"/>
					<path class="st35" d="M89.7,65.5c0.1-0.1,0.4-0.6,0.3-1.1c-0.1-0.5-0.3-0.6-0.4-0.3c-0.1,0.2-0.4,0.6-0.2,0.7
						C89.6,65.2,89.6,65.7,89.7,65.5z"/>
				</g>
			</g>
			<g>
				
					<radialGradient id="SVGID_43_" cx="-433.7601" cy="-103.3504" r="7.0945" gradientTransform="matrix(-0.5033 -0.8641 0.8641 -0.5033 -40.6068 -355.5704)" gradientUnits="userSpaceOnUse">
					<stop  offset="0" style="stop-color:#C40212"/>
					<stop  offset="0.4958" style="stop-color:#C20313"/>
					<stop  offset="0.6744" style="stop-color:#BB0515"/>
					<stop  offset="0.8017" style="stop-color:#B0081A"/>
					<stop  offset="0.9039" style="stop-color:#9F0D21"/>
					<stop  offset="0.9911" style="stop-color:#891329"/>
					<stop  offset="0.9982" style="stop-color:#87142A"/>
				</radialGradient>
				<path class="st49" d="M84.8,65.1c3.4-2,7.7-0.8,9.7,2.6c2,3.4,0.8,7.7-2.6,9.7c-3.4,2-7.7,0.8-9.7-2.6
					C80.3,71.5,81.4,67.1,84.8,65.1z"/>
				<path class="st50" d="M86.4,69.2c0.8-0.5,1.9-0.2,2.4,0.6c0.5,0.8,0.2,1.9-0.6,2.4c-0.8,0.5-1.9,0.2-2.4-0.6
					C85.3,70.7,85.6,69.7,86.4,69.2z"/>
				<path class="st51" d="M82.6,72.5c0.1,0.3,0.2,0.5,0.4,0.8c0.9,1.5,2.7,2.3,4.1,1.8C87.3,74,87,73,87,73s0,0,0,0
					c-0.8-0.2-1.6-0.7-2-1.5C84.1,71.5,83,72.1,82.6,72.5z"/>
				<path class="st52" d="M91,68.3c-0.6-1.5-2.4-2.5-3.8-2.2c-0.2,0.9,0.1,1.8,0.1,1.8s0,0,0,0c0.7,0.2,1.5,0.5,1.9,1.2
					C89.8,69,90.6,68.6,91,68.3z"/>
				<path class="st53" d="M87.2,70.9c-1.3-0.6-3.9-1.4-8.4-1.1c-1.3,0.4-1.6-1.5-0.6-1.7c0.9-0.2,6.9,0.3,9.2,2.4
					C87.7,70.7,87.8,71.2,87.2,70.9z"/>
			</g>
			<g>
				
					<radialGradient id="SVGID_44_" cx="-362.7541" cy="-358.4656" r="7.0945" gradientTransform="matrix(-0.9846 -0.1746 0.1746 -0.9846 -206.002 -359.1683)" gradientUnits="userSpaceOnUse">
					<stop  offset="0" style="stop-color:#C40212"/>
					<stop  offset="0.4958" style="stop-color:#C20313"/>
					<stop  offset="0.6744" style="stop-color:#BB0515"/>
					<stop  offset="0.8017" style="stop-color:#B0081A"/>
					<stop  offset="0.9039" style="stop-color:#9F0D21"/>
					<stop  offset="0.9911" style="stop-color:#891329"/>
					<stop  offset="0.9982" style="stop-color:#87142A"/>
				</radialGradient>
				<path class="st54" d="M81.6,55.9c0.7-3.9,4.4-6.4,8.2-5.7c3.9,0.7,6.4,4.4,5.7,8.2c-0.7,3.9-4.4,6.4-8.2,5.7
					C83.5,63.4,80.9,59.8,81.6,55.9z"/>
				<path class="st50" d="M85.8,57.3c0.2-0.9,1.1-1.6,2-1.4c0.9,0.2,1.6,1.1,1.4,2c-0.2,0.9-1.1,1.6-2,1.4
					C86.2,59.1,85.6,58.2,85.8,57.3z"/>
				<path class="st51" d="M85.8,62.4c0.3,0.1,0.5,0.2,0.8,0.3c1.7,0.3,3.5-0.6,4-2C90,59.7,89,59.3,89,59.3s0,0,0,0
					c-0.7,0.5-1.6,0.7-2.5,0.6C86,60.6,85.7,61.8,85.8,62.4z"/>
				<path class="st52" d="M88,53.2c-1.5-0.5-3.5,0.3-4.1,1.5c0.6,0.8,1.4,1.1,1.4,1.1s0,0,0,0c0.6-0.4,1.3-0.8,2.2-0.7
					C87.8,54.6,88,53.7,88,53.2z"/>
			</g>
		</g>
		<path class="st11" d="M114,56.1c0,0,1.5-8,1.2-12.1C115.3,44,113.8,54.7,114,56.1z"/>
		<path class="st55" d="M66.4,103l-0.4-2.2l-0.8-0.1c0,0-0.5-0.6-0.6-0.8s0.2-0.9-0.2-1.2c-0.4-0.3,0.3,0.7-0.4-0.3
			c-0.8-1-0.8-0.8-1.1-1.4c-0.3-0.6-0.3-1.2-0.7-1.6s0.2,2.3,0.3,2.8c0.2,0.4,0.8,1.5,0.8,1.5s0.4,0.2,0.6,0.8
			c0.2,0.6,0.2,0.8,0.8,1.4C65.2,102.4,65.6,103.8,66.4,103z"/>
		<path class="st55" d="M40.8,41.5c0,0,0.4,2.1,0.7,2.5c0.2,0.4,1,1.2,1,1.8s0.2,0.8,0.2,1.3c0.1,0.6,0.2,0.9,0.3,1.5
			c0.1,0.6,0,0.9,0,0.9s-1.2-0.4-1.2-0.8c0-0.4,0.2-0.4,0-0.8c-0.2-0.4,0.2-0.2-0.3-0.8s-0.8-0.7-0.8-1.1s0.4-0.2-0.1-1
			s-0.5,0-0.5-1.2C40.1,42.7,40.8,41.5,40.8,41.5z"/>
		<path class="st55" d="M50,65.8c0,0,0.8,1.6,1,1.9s0.8,0.8,1.1,1.4c0.2,0.6,0.7,1.8,0.7,2.2s0.3,0.8,0,0.5
			c-0.3-0.2-0.8-1.3-1.2-1.6c-0.4-0.2-0.1-0.2-0.5-0.8c-0.4-0.7-0.6-1.2-0.8-1.8C50,67,50,65.8,50,65.8z"/>
		<path class="st55" d="M54.7,78.7c0,0,1.1,1.2,1.1,1.4s0.5,1.3,0.6,1.8c0.1,0.4,0,0.2,0.3,1.2c0.3,1,0.8,1.7,0.8,1.7L57,85
			c0,0-0.4-0.8-0.8-1.2c-0.3-0.5-0.4-0.2-0.8-1s-0.4-0.4-0.5-1.1C54.8,81,54.7,78.7,54.7,78.7z"/>
		<path class="st55" d="M53.9,75.8c0,0,0.4,0.8,0.7,1.3s0.2,0.8,0.8,1.2s0-0.3,0.5,0.5c0.5,0.8-0.1-0.8-0.6-2.1s-1.9-3.4-1.9-3.4
			L53.9,75.8z"/>
		<path class="st55" d="M62.9,95.6c0,0-1.1-0.9-1.4-1.6c-0.3-0.7-0.2-0.8-0.8-1.8c-0.6-1-0.8-0.9-0.8-1.7s0.6-0.7-0.2-1.9
			s-0.3-0.8-0.9-1.7c-0.6-0.8-0.7-1.6-0.8-2c-0.1-0.4-0.2-1.5-0.2-1.5s2.6,3.2,3.1,4.9C61.4,90.1,62.8,95,62.9,95.6z"/>
		<path class="st55" d="M57.6,87.9c0,0,0.8,0.7,1.1,1.6s0.8,3,0.2,2.1C58.5,90.7,57.6,87.9,57.6,87.9z"/>
		<path class="st55" d="M64.6,103.2c0,0,0.9,0.5,0.9,1s0,1.5,0,2.2S64.4,103.7,64.6,103.2z"/>
		<path class="st55" d="M54,78.2c0,0,0.2-1.2-0.2-1.5s-0.5-0.7-0.8-1.1c-0.3-0.4-0.3-1-0.8-1.6c-0.4-0.6-0.6-1.3-0.5-0.2
			c0.1,1.1-0.1,0.8,0.5,2.7S54.1,81.2,54,78.2z"/>
		<path class="st55" d="M49.5,63.6c0-0.1-0.1-0.2-0.1-0.4c-0.3-0.7-0.8-1.8-1.1-2.1c-0.4-0.4-1.2-1.3-0.6,0.1c0.6,1.4,0.7,1.7,1,2.4
			C49,64.3,49.5,65.2,49.5,63.6z"/>
		<path class="st55" d="M48.8,65.9c0,0,0.3,0,0.5,1.3c0.2,1.3,1,3.8,1,3.8S48.1,67.6,48.8,65.9z"/>
	</g>
	<g>
		<path class="st56" d="M36.8,75.9c-1.3-2.8,0.1-5.4,0.2-5.8c0.1-0.3-0.4-0.9-0.4-0.9s-2.1-3-2.8-4.1c-0.7-1.1-4.3-6.6-5.5-8.3
			c-1.1-1.7-5.3-7.5-5.3-7.5c-0.1-0.1-0.2-0.1-0.4,0c-0.2,0.1-0.1,0.4-0.1,0.4c1.4,3,8.8,14.5,9.2,15.2c0.5,0.7-0.1,1-0.1,1
			c-0.6,0.4-1-0.3-1-0.3S21,51.4,20.9,51.1c-0.2-0.3-0.4-0.3-0.6-0.2c-0.2,0.1,0,0.6,0,0.6s8.6,14.1,9.1,14.9c0.5,0.8,0,1,0,1
			S29,67.8,28.5,67c-0.5-0.8-10-14.4-10-14.4s-0.3-0.4-0.5-0.3c-0.2,0.1-0.2,0.3,0,0.6c0.2,0.3,9.3,14.8,9.3,14.8s0.5,0.6-0.1,1
			c0,0-0.5,0.4-1-0.3c-0.5-0.7-8-12.1-10.2-14.6c0,0-0.2-0.2-0.4-0.1c-0.2,0.1-0.1,0.3-0.1,0.4c0,0.1,3.6,6.2,4.7,7.9
			c1.1,1.7,4.6,7.2,5.4,8.3c0.7,1.1,2.6,4.3,2.6,4.3s0.3,0.6,0.7,0.7c0.3,0.1,3.4-0.2,5.4,2.2c2,2.3,3.5,4.6,4.4,6l0,0
			c0,0,6.9,10.3,9.3,15.2c2.3,4.9,4.1,9.7,4.5,11.1c0.4,1.4,3.1,11.4,9.4,7.3c6.3-4.1-1.8-10.6-2.8-11.6c-1.1-1-4.8-4.5-8.3-8.6
			c-3.5-4.1-10.1-14.7-10.1-14.7C39.6,80.9,38.1,78.6,36.8,75.9z"/>
		
			<linearGradient id="SVGID_45_" gradientUnits="userSpaceOnUse" x1="-170.9073" y1="-105.2734" x2="-170.9073" y2="-28.4075" gradientTransform="matrix(0.838 -0.5456 0.5456 0.838 219.9929 47.0266)">
			<stop  offset="0" style="stop-color:#EDEDED"/>
			<stop  offset="0.1444" style="stop-color:#EAEAEA"/>
			<stop  offset="0.2468" style="stop-color:#E1E1E1"/>
			<stop  offset="0.2864" style="stop-color:#DBDBDB"/>
			<stop  offset="0.7688" style="stop-color:#ECECEC"/>
			<stop  offset="0.7797" style="stop-color:#EAEAEA"/>
			<stop  offset="0.899" style="stop-color:#DCDDDD"/>
			<stop  offset="1" style="stop-color:#D7D8D8"/>
		</linearGradient>
		<path class="st57" d="M61.6,117.1c1.6-1,2.2-2.2,2.2-3.3c0.1-1.2-0.5-2.4-1.2-3.6c-1.3-2.1-3.4-3.8-3.9-4.2
			c-1.1-1-4.8-4.5-8.3-8.7c-2.1-2.4-5.2-7.1-7.4-10.5c-1.6-2.4-2.7-4.2-2.7-4.2c-0.9-1.4-2.4-3.7-3.7-6.5c-1-2.2-0.4-4.3-0.1-5.3
			c0.1-0.3,0.2-0.6,0.2-0.6c0,0-0.1-0.3-0.2-0.5c-0.1-0.1-0.1-0.2-0.1-0.2l0,0l0,0c0,0-2.1-3-2.8-4.1c-0.7-1.1-4.3-6.6-5.5-8.3
			c-1.1-1.6-5-7.1-5.3-7.5c0,0,0,0,0,0c0,0,0,0,0,0c1.4,3.1,8.7,14.5,9.2,15.2c0.2,0.4,0.3,0.7,0.2,0.9c-0.1,0.3-0.3,0.4-0.3,0.4
			c0,0,0,0,0,0c-0.4,0.2-0.7,0.2-1,0c-0.2-0.1-0.4-0.3-0.4-0.4c0,0,0,0,0,0c-0.2-0.4-9.6-14.2-9.8-14.5c-0.1-0.1-0.1-0.1-0.1-0.1
			c0,0,0,0,0,0c0,0,0,0,0,0c0,0,0,0,0,0c0,0,0,0.1,0.1,0.2c0,0,0,0,0,0.1c0,0,2.1,3.5,4.3,7.1c2.2,3.6,4.5,7.4,4.7,7.8
			c0.2,0.4,0.3,0.6,0.3,0.9c0,0.3-0.2,0.4-0.3,0.5c0,0,0,0-0.1,0c0,0,0,0-0.1,0c-0.1,0.1-0.3,0.2-0.6,0.1c-0.2-0.1-0.5-0.2-0.7-0.6
			c-0.3-0.4-2.8-4-5.2-7.5c-2.4-3.5-4.8-6.9-4.8-6.9c0,0,0,0,0,0c0,0,0,0-0.1-0.1c0,0-0.1-0.1-0.1-0.1c0,0,0,0,0,0l0,0
			c0,0,0,0.1,0.1,0.2c0.2,0.3,9.3,14.8,9.3,14.8l0,0c0,0.1,0.2,0.3,0.2,0.5c0,0.3-0.1,0.6-0.4,0.9c0,0,0,0,0,0
			c-0.1,0.1-0.3,0.2-0.5,0.1c-0.3,0-0.6-0.2-0.8-0.5c-0.5-0.7-7.9-12-10.1-14.6c0,0,0,0,0,0c0,0,0,0,0,0c0,0,0,0,0,0c0,0,0,0,0,0.1
			c0,0,0.1,0.1,0.1,0.2c0.1,0.2,0.2,0.4,0.4,0.7c0.4,0.6,0.8,1.4,1.4,2.3c1,1.8,2.2,3.7,2.8,4.6c1.1,1.7,4.6,7.2,5.4,8.3
			c0.7,1.1,2.6,4.3,2.6,4.3l0,0l0,0c0,0,0,0.1,0.1,0.2c0.1,0.2,0.3,0.4,0.4,0.4c0,0,0.3,0,0.7,0c0.4,0,0.9,0.1,1.4,0.2
			c1.1,0.2,2.4,0.8,3.4,2c2,2.3,3.5,4.6,4.4,6l0,0c0,0,0.8,1.2,1.9,2.9c2.2,3.4,5.8,9.1,7.4,12.4c2.3,4.9,4.1,9.7,4.5,11.1
			c0.2,0.7,0.9,3.2,2.3,5.3c0.7,1.1,1.7,2.1,2.8,2.5C58.7,118.2,60,118.1,61.6,117.1z"/>
		<path class="st9" d="M29.5,75.2c0.4,0,0.9,0.1,1.4,0.2c1.1,0.2,2.4,0.8,3.4,2c2,2.3,3.5,4.6,4.4,6l0,0c0,0,0.8,1.2,1.9,2.9
			c0.4,0.7,0.9,1.4,1.4,2.2c-0.2-0.6-0.4-1.3-0.8-1.9c-2-3.9-8-12.4-11.1-13c-1.2-0.2-2.7-1.3-4.1-2.6c0.9,1.4,2.1,3.4,2.1,3.4l0,0
			l0,0c0,0,0,0.1,0.1,0.2c0.1,0.2,0.3,0.4,0.4,0.4C28.8,75.2,29.1,75.2,29.5,75.2z"/>
		<path class="st58" d="M28.5,67c-0.5-0.8-10-14.4-10-14.4s-0.3-0.4-0.5-0.3c-0.1,0-0.1,0.1-0.1,0.1c0.2,0,0.4,0.3,0.4,0.3
			s9.4,13.5,10,14.4c0.5,0.8,0.9,0.4,0.9,0.4s0.1,0,0.1-0.1C29.1,67.6,28.8,67.6,28.5,67z M31.4,66c0,0,0.1,0,0.1-0.1
			c-0.5,0.2-0.9-0.4-0.9-0.4S21,51.4,20.9,51.1c-0.2-0.3-0.4-0.3-0.6-0.2c0,0-0.1,0.1-0.1,0.1c0.2,0,0.3,0.1,0.4,0.3
			c0.2,0.3,9.8,14.5,9.8,14.5S30.8,66.4,31.4,66z M36.6,69.2c0,0-2.1-3-2.8-4.1c-0.7-1.1-4.3-6.6-5.5-8.3c-1.1-1.7-5.3-7.5-5.3-7.5
			c-0.1-0.1-0.2-0.1-0.4,0c0,0-0.1,0.1-0.1,0.1c0.1,0,0.2,0.1,0.2,0.1c0.1,0.1,4.2,5.8,5.3,7.5c1.1,1.7,4.7,7.2,5.5,8.3
			c0.7,1.1,2.8,4.1,2.8,4.1s0.4,0.5,0.4,0.9c-0.1,0.3-1,2.5-0.2,4.9l0,0c-0.8-2.5,0.4-4.8,0.5-5.1C37.1,69.8,36.6,69.2,36.6,69.2z
			 M26.1,68.5c-0.5-0.7-8-12.1-10.2-14.6c0,0-0.2-0.2-0.4-0.1c-0.1,0-0.1,0.1-0.1,0.1c0.1,0,0.2,0.1,0.2,0.1
			c2.2,2.5,9.7,13.9,10.2,14.6c0.5,0.7,1,0.3,1,0.3c0,0,0.1-0.1,0.1-0.1C26.8,69,26.4,69,26.1,68.5z"/>
	</g>
</g>
</svg>
