<?xml version="1.0" encoding="utf-8"?>
<!-- Generator: Adobe Illustrator 22.1.0, SVG Export Plug-In . SVG Version: 6.00 Build 0)  -->
<svg version="1.1" id="Layer_1" xmlns="http://www.w3.org/2000/svg" xmlns:xlink="http://www.w3.org/1999/xlink" x="0px" y="0px"
	 viewBox="0 0 144 144" style="enable-background:new 0 0 144 144;" xml:space="preserve">
<style type="text/css">
	.st0{fill:url(#SVGID_1_);}
	.st1{fill:url(#SVGID_2_);}
	.st2{fill:url(#SVGID_3_);}
	.st3{fill:url(#SVGID_4_);}
	.st4{fill:url(#SVGID_5_);}
	.st5{fill:url(#SVGID_6_);}
	.st6{fill:#FFFFFF;}
	.st7{fill:url(#SVGID_7_);}
	.st8{fill:url(#SVGID_8_);}
	.st9{fill:url(#SVGID_9_);}
	.st10{fill:url(#SVGID_10_);}
	.st11{fill:url(#SVGID_11_);}
	.st12{fill:url(#SVGID_12_);}
	.st13{fill:url(#SVGID_13_);}
	.st14{fill:url(#SVGID_14_);}
	.st15{fill:url(#SVGID_15_);}
	.st16{opacity:0.44;fill:url(#SVGID_16_);}
	.st17{opacity:0.52;}
	.st18{fill:url(#SVGID_17_);}
	.st19{fill:#BE7626;}
	.st20{fill:url(#SVGID_18_);}
	.st21{opacity:0.58;}
	.st22{fill:url(#SVGID_19_);}
	.st23{opacity:0.51;}
	.st24{fill:url(#SVGID_20_);}
	.st25{opacity:0.5;fill:#FEF6A6;}
	.st26{opacity:0.4;fill:#FEF6A6;}
	.st27{fill:url(#SVGID_21_);}
	.st28{fill:url(#SVGID_22_);}
	.st29{opacity:0.56;fill:url(#SVGID_23_);}
	.st30{fill:url(#SVGID_24_);}
	.st31{opacity:0.6;fill:url(#SVGID_25_);}
	.st32{opacity:0.56;fill:url(#SVGID_26_);}
	.st33{fill:url(#SVGID_27_);}
	.st34{opacity:0.2;}
	.st35{fill:url(#SVGID_28_);}
	.st36{fill:url(#SVGID_29_);}
	.st37{opacity:0.15;fill:#FFFFFF;}
	.st38{fill:url(#SVGID_30_);}
	.st39{fill:url(#SVGID_31_);}
	.st40{fill:url(#SVGID_32_);}
	.st41{fill:url(#SVGID_33_);}
</style>
<g>
	<g>
		<g>
			<g>
				<linearGradient id="SVGID_1_" gradientUnits="userSpaceOnUse" x1="100.2077" y1="121.2452" x2="79.1189" y2="121.2452">
					<stop  offset="3.846150e-02" style="stop-color:#7A7A7A"/>
					<stop  offset="0.2527" style="stop-color:#7A7A7A"/>
					<stop  offset="0.9615" style="stop-color:#C4C4C4"/>
				</linearGradient>
				<path class="st0" d="M99.5,120.5h-0.6c-1.3-0.9-4.8-1.5-8.9-1.5c-6,0-8.2,0.9-9,1.5h-0.4l0,0.8c0.1,1.2,4.3,2.2,9.5,2.2
					c5.2,0,9.5-1,9.5-2.2c0,0,0,0,0,0h0V120.5z"/>
				<linearGradient id="SVGID_2_" gradientUnits="userSpaceOnUse" x1="74.9547" y1="120.4893" x2="97.7007" y2="120.4893">
					<stop  offset="0" style="stop-color:#FFFFFF"/>
					<stop  offset="0.2363" style="stop-color:#E2E2E2"/>
					<stop  offset="0.8736" style="stop-color:#BCBCBC"/>
				</linearGradient>
				<path class="st1" d="M99.5,120.5c0,1.2-4.2,2.2-9.5,2.2c-5.2,0-9.5-1-9.5-2.2c0-1.2,4.2-2.2,9.5-2.2
					C95.2,118.3,99.5,119.3,99.5,120.5z"/>
				<linearGradient id="SVGID_3_" gradientUnits="userSpaceOnUse" x1="89.8774" y1="122.4284" x2="89.8774" y2="120.6622">
					<stop  offset="0.3901" style="stop-color:#FFFFFF"/>
					<stop  offset="1" style="stop-color:#E8E8E8"/>
				</linearGradient>
				<path class="st2" d="M96.1,121.4c0,0.6-2.8,1.1-6.3,1.1c-3.5,0-6.3-0.5-6.3-1.1c0-0.6,2.8-1.1,6.3-1.1
					C93.3,120.3,96.1,120.8,96.1,121.4z"/>
				<g>
					<linearGradient id="SVGID_4_" gradientUnits="userSpaceOnUse" x1="74.9557" y1="118.2701" x2="97.7008" y2="118.2701">
						<stop  offset="0" style="stop-color:#FFFFFF"/>
						<stop  offset="0.2363" style="stop-color:#E2E2E2"/>
						<stop  offset="0.8736" style="stop-color:#BCBCBC"/>
					</linearGradient>
					<path class="st3" d="M97.2,119.6C97.2,119.6,97.2,119.6,97.2,119.6C97.2,119.6,97.2,119.6,97.2,119.6c-0.2-0.3-0.7-0.7-2-1.3
						c-1.9-0.8-2.5-1.5-2.5-1.5l-2.7,0l-2.6-0.2c0,0-0.5,0.6-2.6,1.6c-1.3,0.6-1.8,1-2,1.2c0,0-0.1,0.1-0.1,0.1c0,0,0,0,0,0h0
						c0,0,0,0,0,0c0,0.5,3.2-0.1,7.2-0.1C94,119.5,97.2,120.1,97.2,119.6C97.2,119.6,97.2,119.6,97.2,119.6L97.2,119.6z"/>
				</g>
				<g>
					<linearGradient id="SVGID_5_" gradientUnits="userSpaceOnUse" x1="99.0312" y1="103.7295" x2="87.075" y2="103.7295">
						<stop  offset="3.846150e-02" style="stop-color:#7A7A7A"/>
						<stop  offset="0.2527" style="stop-color:#7A7A7A"/>
						<stop  offset="0.9615" style="stop-color:#C4C4C4"/>
					</linearGradient>
					<path class="st4" d="M88,118.3l4.5-0.2c0.3-0.2,0.3-0.4,0.3-0.7c0-1.3-1.6-2.1-1.7-10.7V104c0-2.7,0-6.8,0.3-8.5
						c0.2-1.7,0.8-3.1,1.2-4.2c0.6-1.3,1.4-2.2,1.4-2.2l-7.8,0c0,0,0.6,0.5,1.2,1.8c0.5,1,1.1,2.6,1.2,4.5c0.2,1.7,0.3,5.8,0.3,8.5
						v2.7c-0.1,8.6-1.8,9.3-1.7,10.8c0,0.2,0.2,0.4,0.4,0.5L88,118.3z"/>
				</g>
				<g>
					<linearGradient id="SVGID_6_" gradientUnits="userSpaceOnUse" x1="90.22" y1="91.0758" x2="90.2142" y2="118.6436">
						<stop  offset="0.3901" style="stop-color:#FFFFFF"/>
						<stop  offset="1" style="stop-color:#E8E8E8"/>
					</linearGradient>
					<path class="st5" d="M90.8,99.1c0-1.7,0.1-3.4,0.2-4.4c0.2-1.8,1.2-3.6,1.2-3.6l-2.1,0.1l-2.1-0.1c0,0,1,1.8,1.2,3.6
						c0.1,1.1,0.2,2.7,0.2,4.4v9.1c0,7.7-2.4,9.2-1.6,10c0.2,0.2,0.9,0.5,2.3,0.5c1.2,0,2.8-0.5,2.6-0.9c-0.8-2-1.8-4.1-1.9-9.5
						V99.1z"/>
				</g>
				<path class="st6" d="M89.5,98.4v-0.3c0-1.7-0.1-3.4-0.2-4.4c-0.1-1-0.4-1.9-0.7-2.6l-0.1,0c0.3,0.7,0.7,1.8,0.9,2.9
					C89.4,95,89.5,96.7,89.5,98.4z M92.5,117.1c-0.5-0.3-1.5-0.2-2.3,0.1c-1.9,0.7-2.3-0.1-2.3-0.1c0,0.1,0,0.1-0.1,0.2
					c0,0,0,0.1,0.1,0.1c0.2,0.2,0.9,0.5,2.3,0.5c0.9,0,2-0.3,2.4-0.6C92.5,117.3,92.5,117.2,92.5,117.1z M91.9,91.1l-0.1,0
					c-0.3,0.7-0.6,1.6-0.7,2.6c-0.1,1.1-0.2,2.7-0.2,4.4v0.3c0-1.7,0.1-3.4,0.2-4.4C91.1,92.9,91.6,91.8,91.9,91.1z"/>
				<g>
					<linearGradient id="SVGID_7_" gradientUnits="userSpaceOnUse" x1="93.8219" y1="104.2067" x2="87.3322" y2="104.2067">
						<stop  offset="0.1099" style="stop-color:#E4E4E4"/>
						<stop  offset="0.8846" style="stop-color:#E4E4E4"/>
						<stop  offset="1" style="stop-color:#F3F3F3"/>
					</linearGradient>
					<path class="st7" d="M92.7,117.7c-0.8-2-1.8-4.1-1.9-9.5v-9.1c0-1.7,0.1-3.4,0.2-4.4c0.2-1.8,2-4.7,2-4.7l-2.9,1.2l-2.9-0.8
						c0,0,1.2,1.5,1.7,3c0.1,0.3,0.4,0.4,0.7,0.3c0.6,0.4,0.5,1.6,0.5,3.7c0.1,2.8,0.1,14.6,0.2,17.1c0,1.6,0.7,3,1.3,3.8
						C92.3,118.3,92.8,118,92.7,117.7z"/>
				</g>
				<g>
					<path class="st6" d="M89,91.9c-0.1,0-0.2,0-0.1,0.2c0.1,0.2,0.3,0.8,0.5,0.9c0.2,0.1,0.3-0.4,0.3-0.6
						C89.6,92.1,89.5,92,89,91.9z"/>
				</g>
				<g>
					<path class="st6" d="M89,115.6c-0.1,0.1-0.1,0.4,0.2,0.4c0.3,0,0.8,0.1,1.2-0.1c0.3-0.1,0.2-0.3-0.3-0.7
						C89.8,115,89.4,115,89,115.6z"/>
				</g>
				<g>
					<linearGradient id="SVGID_8_" gradientUnits="userSpaceOnUse" x1="98.6252" y1="115.5142" x2="87.0483" y2="115.5142">
						<stop  offset="3.846150e-02" style="stop-color:#7A7A7A"/>
						<stop  offset="0.2527" style="stop-color:#7A7A7A"/>
						<stop  offset="0.9615" style="stop-color:#C4C4C4"/>
					</linearGradient>
					<path class="st8" d="M91.6,114.1c0,0,0.1,1.6-0.9,2c-0.9,0.3-1.5,0.2-1.8,0.1c-0.1,0-0.3,0.1,0,0.2c0.9,0.2,1.3,0.1,2.3,0.1
						c1,0,1.3,0.6,1.3,0.6L91.6,114.1z"/>
				</g>
				<g>
					<linearGradient id="SVGID_9_" gradientUnits="userSpaceOnUse" x1="99.2296" y1="93.447" x2="86.7863" y2="93.447">
						<stop  offset="3.846150e-02" style="stop-color:#7A7A7A"/>
						<stop  offset="0.2527" style="stop-color:#7A7A7A"/>
						<stop  offset="0.9615" style="stop-color:#C4C4C4"/>
					</linearGradient>
					<path class="st9" d="M91.1,94.5c0.1-0.4,0.6-1.8,0.7-2.2c-0.1,0.2-0.4,0.6-0.7,0.8c-0.3,0.2-0.7,0.3-1.3,0.1
						c-0.3-0.1-0.8-0.2-1.2-0.8c0.1,0.5,0.6,1.6,0.7,1.9c0-0.4,0.5-0.7,1-0.7C90.8,93.8,91,94.1,91.1,94.5z"/>
				</g>
				<g>
					<linearGradient id="SVGID_10_" gradientUnits="userSpaceOnUse" x1="102.2557" y1="71.4545" x2="77.7167" y2="71.4545">
						<stop  offset="0" style="stop-color:#E4E4E4"/>
						<stop  offset="1" style="stop-color:#F1F1F1"/>
					</linearGradient>
					<path class="st10" d="M101,61.2c-1.2-5.9-2-10.3-2-10.3H81c0,0-0.8,4.4-2,10.3c-1.2,6.1-1.7,13.2-0.3,17.7
						c2.6,8.4,6.6,7.5,8.8,11.4c0.4,0.7,1.3,1.8,2.5,1.8c1.2,0,2.1-1.1,2.5-1.8c2.2-3.8,6.2-2.9,8.8-11.4
						C102.7,74.4,102.2,67.2,101,61.2z"/>
				</g>
				<g>
					
						<radialGradient id="SVGID_11_" cx="90.0003" cy="71.2194" r="18.9211" gradientTransform="matrix(1 0 0 1.3012 0 -4.3814)" gradientUnits="userSpaceOnUse">
						<stop  offset="0.1694" style="stop-color:#FEF6A6"/>
						<stop  offset="0.3279" style="stop-color:#FCD855"/>
						<stop  offset="0.5191" style="stop-color:#F6B635"/>
						<stop  offset="0.8798" style="stop-color:#BE7626"/>
					</radialGradient>
					<path class="st11" d="M78.4,65.9c-0.5,4.7-0.4,9.4,0.6,12.7c2.6,8.3,8.4,9.7,11,9.7c2.6,0,8.5-1.4,11-9.7c1-3.3,1.1-8,0.6-12.7
						H78.4z"/>
				</g>
				<g>
					<linearGradient id="SVGID_12_" gradientUnits="userSpaceOnUse" x1="67.267" y1="65.9085" x2="103.2532" y2="65.9085">
						<stop  offset="0" style="stop-color:#783D00"/>
						<stop  offset="1" style="stop-color:#F6B635"/>
					</linearGradient>
					<path class="st12" d="M101.6,65.9c0,0.9-4.9,1.6-11.6,1.6c-6.7,0-11.6-0.7-11.6-1.6c0-0.9,4.9-1.6,11.6-1.6
						C96.7,64.3,101.6,65,101.6,65.9z"/>
				</g>
				<g>
					
						<radialGradient id="SVGID_13_" cx="96.9046" cy="125.9354" r="12.8853" gradientTransform="matrix(1 0 0 1.0635 0 -38.6861)" gradientUnits="userSpaceOnUse">
						<stop  offset="0.2967" style="stop-color:#BE7626"/>
						<stop  offset="0.6429" style="stop-color:#6E6E6E"/>
						<stop  offset="0.9615" style="stop-color:#C4C4C4"/>
					</radialGradient>
					<path class="st13" d="M90,89.8c-1.2,0-2.3-0.2-3.4-0.5c0.4,0.3,0.7,0.6,1,0.9c0.4,0.5,1.3,1.2,2.4,1.2c1.1,0,2-0.7,2.4-1.2
						c0.3-0.4,0.7-0.7,1-0.9C92.3,89.6,91.2,89.8,90,89.8z"/>
				</g>
				<linearGradient id="SVGID_14_" gradientUnits="userSpaceOnUse" x1="80.5216" y1="119.6674" x2="98.1596" y2="119.6674">
					<stop  offset="0.3901" style="stop-color:#FFFFFF"/>
					<stop  offset="1" style="stop-color:#E8E8E8"/>
				</linearGradient>
				<path class="st14" d="M99.5,120.4c-0.1-0.6-1.3-1.1-3.1-1.5c0.4,0.2,1.3,0.6,1.9,1.3c0.5,0,1,0.2,1.2,0.3
					C99.5,120.4,99.5,120.4,99.5,120.4z"/>
				<linearGradient id="SVGID_15_" gradientUnits="userSpaceOnUse" x1="87.1471" y1="119.6674" x2="76.2987" y2="119.6674">
					<stop  offset="0.3901" style="stop-color:#FFFFFF"/>
					<stop  offset="1" style="stop-color:#E8E8E8"/>
				</linearGradient>
				<path class="st15" d="M80.5,120.4c0.1-0.6,1.3-1.1,3.1-1.5c-0.4,0.2-1.3,0.6-1.9,1.3c-0.5,0-1,0.2-1.2,0.3
					C80.5,120.4,80.5,120.4,80.5,120.4z"/>
				<g>
					<g>
						
							<linearGradient id="SVGID_16_" gradientUnits="userSpaceOnUse" x1="-242.6755" y1="465.4467" x2="-242.4788" y2="465.4467" gradientTransform="matrix(-124.7886 0 0 124.7886 -30180.8691 -58012.918)">
							<stop  offset="0" style="stop-color:#B6B6B6"/>
							<stop  offset="1" style="stop-color:#C1C1C1"/>
						</linearGradient>
						<path class="st16" d="M99,50.9h-2.6c0,0,0.8,4.4,2,10.3c0.2,1.2,0.5,2.5,0.6,3.7c1.6,0.3,2.6,0.6,2.6,1v0l0,0
							c0.5,4.7,0.4,9.4-0.6,12.7c-2.2,7.1-6.8,9.1-9.7,9.6c0.2,0,0.4,0,0.6,0c0.9,0,2.3-0.1,3.7-1.1c0.2-0.2,0.4-0.3,0.6-0.5
							c1.7-1.3,3.5-3.1,4.9-7.4c0,0,0,0,0,0c0,0,0.1-0.3,0.1-0.3c0.6-1.9,0.8-4.3,0.8-6.9c0-3.5-0.4-7.3-1.1-10.7
							C99.8,55.3,99,50.9,99,50.9L99,50.9z"/>
						<g class="st17">
							
								<radialGradient id="SVGID_17_" cx="-222.226" cy="471.9821" r="0.1967" gradientTransform="matrix(96.2173 0 0 -125.1991 21471.9883 59180.043)" gradientUnits="userSpaceOnUse">
								<stop  offset="0" style="stop-color:#F6B635"/>
								<stop  offset="0.2473" style="stop-color:#F6B635"/>
								<stop  offset="0.3671" style="stop-color:#D6922D"/>
								<stop  offset="0.4505" style="stop-color:#BE7626"/>
								<stop  offset="0.7363" style="stop-color:#A65917"/>
								<stop  offset="1" style="stop-color:#783D00"/>
							</radialGradient>
							<path class="st18" d="M101.6,65.9L101.6,65.9c0,0.4-0.9,0.7-2.4,1c0.5,4.5,0.4,8.9-0.6,12c-2.1,6.8-5.9,8.9-7.3,9.3
								c0,0,0,0,0,0c2.9-0.4,7.5-2.5,9.7-9.6C102,75.3,102.1,70.6,101.6,65.9L101.6,65.9z"/>
						</g>
						<g>
							<path class="st19" d="M99,64.9c0.1,0.7,0.2,1.3,0.2,2c1.5-0.3,2.4-0.6,2.4-1v0C101.6,65.5,100.6,65.2,99,64.9L99,64.9z"/>
						</g>
					</g>
					<g>
						<g>
							
								<linearGradient id="SVGID_18_" gradientUnits="userSpaceOnUse" x1="-242.6755" y1="465.4419" x2="-242.4789" y2="465.4419" gradientTransform="matrix(-124.7886 0 0 124.7886 -30180.8691 -58012.918)">
								<stop  offset="0" style="stop-color:#CECECE"/>
								<stop  offset="1" style="stop-color:#D9D9D9"/>
							</linearGradient>
							<path class="st20" d="M81.8,50.9H81c0,0-0.8,4.4-2,10.3c-0.7,3.5-1.1,7.3-1.1,10.7c0,2.6,0.3,5,0.8,6.9l0,0
								c1.1,3.6,2.4,5.5,3.8,6.8c0,0,0,0,0,0c0.5,0.5,1.6,1,2.7,1.4c-2.3-1.3-4.8-3.8-6.2-8.4c-1-3.3-1.1-8-0.6-12.7c0,0,0,0,0,0
								c0-0.2,0.3-0.4,0.8-0.6c0.2-1.4,0.4-2.8,0.7-4.2C81,55.3,81.8,50.9,81.8,50.9L81.8,50.9z"/>
							<g class="st21">
								
									<radialGradient id="SVGID_19_" cx="-222.226" cy="471.9824" r="0.1963" gradientTransform="matrix(96.2173 0 0 -125.1991 21471.9883 59180.043)" gradientUnits="userSpaceOnUse">
									<stop  offset="0" style="stop-color:#F6B635"/>
									<stop  offset="0.2473" style="stop-color:#F6B635"/>
									<stop  offset="0.3671" style="stop-color:#D6922D"/>
									<stop  offset="0.4505" style="stop-color:#BE7626"/>
									<stop  offset="0.7363" style="stop-color:#A65917"/>
									<stop  offset="1" style="stop-color:#783D00"/>
								</radialGradient>
								<path class="st22" d="M78.4,65.9c-0.5,4.7-0.4,9.4,0.6,12.7c1.4,4.6,3.9,7.1,6.2,8.4c0,0,0,0,0,0c-1.9-1.4-4.1-3-5.7-8.1
									c-1-3.2-1-7.8-0.5-12.4C78.6,66.3,78.4,66.1,78.4,65.9L78.4,65.9z"/>
							</g>
							<g class="st23">
								<path class="st19" d="M79.2,65.3c-0.5,0.2-0.8,0.4-0.8,0.6c0,0,0,0,0,0c0,0.2,0.2,0.3,0.6,0.5
									C79.1,66.1,79.1,65.7,79.2,65.3L79.2,65.3z"/>
							</g>
						</g>
						<g>
							
								<linearGradient id="SVGID_20_" gradientUnits="userSpaceOnUse" x1="-242.6753" y1="465.3553" x2="-242.4789" y2="465.3553" gradientTransform="matrix(-124.7886 0 0 124.7886 -30180.8691 -58012.918)">
								<stop  offset="0" style="stop-color:#F4F4F4"/>
								<stop  offset="1" style="stop-color:#F9F9F9"/>
							</linearGradient>
							<path class="st24" d="M83.3,51.3c-0.3,1.3-1,5.1-2,9.8c-0.3,1.3-0.5,2.6-0.7,4c1.1-0.2,2.7-0.4,4.5-0.5
								c0.2-1.1,0.4-2.2,0.6-3.3c0.9-4.6,1.6-8.3,1.9-9.7C85.9,51.4,84.4,51.3,83.3,51.3L83.3,51.3z"/>
							<path class="st25" d="M80.4,66.8c-0.4,4.1-0.5,8.1,0.3,11.1c1.1-2.1,2.4-3.9,3.9-5.5c0-1.7,0.1-3.4,0.2-5.1
								C83,67.2,81.5,67,80.4,66.8L80.4,66.8z"/>
							<path class="st26" d="M85.1,64.5c-1.8,0.1-3.4,0.3-4.5,0.5c-0.1,0.6-0.2,1.2-0.2,1.8c1.1,0.2,2.6,0.4,4.4,0.5
								C84.9,66.4,85,65.4,85.1,64.5L85.1,64.5z"/>
						</g>
					</g>
				</g>
				<linearGradient id="SVGID_21_" gradientUnits="userSpaceOnUse" x1="80.9906" y1="50.9054" x2="102.1658" y2="50.9054">
					<stop  offset="4.395600e-02" style="stop-color:#CCCCCC"/>
					<stop  offset="1" style="stop-color:#E4E4E4"/>
				</linearGradient>
				<path class="st27" d="M99,50.9c0,0.3-3.8,0.6-9,0.6c-5.2,0-9-0.3-9-0.6c0-0.3,3.8-0.5,9-0.5C95.2,50.3,99,50.6,99,50.9z"/>
				<linearGradient id="SVGID_22_" gradientUnits="userSpaceOnUse" x1="82.3176" y1="50.8594" x2="97.879" y2="50.8594">
					<stop  offset="0" style="stop-color:#E4E4E4"/>
					<stop  offset="0.6209" style="stop-color:#FFFFFF"/>
				</linearGradient>
				<path class="st28" d="M97.9,50.9c0,0.2-3.2,0.4-7.8,0.4c-4.5,0-7.8-0.2-7.8-0.4c0-0.2,3.2-0.4,7.8-0.4
					C94.6,50.5,97.9,50.6,97.9,50.9z"/>
			</g>
		</g>
		<g>
			
				<radialGradient id="SVGID_23_" cx="95.4166" cy="64.1276" r="8.7746" gradientTransform="matrix(1 0 0 0.7582 0 30.4783)" gradientUnits="userSpaceOnUse">
				<stop  offset="0.2077" style="stop-color:#FFFFFF"/>
				<stop  offset="1" style="stop-color:#CEA0A8"/>
			</radialGradient>
			<path class="st29" d="M99.4,70.2c0,0,0.8,5.7-1.1,9.9c-3.2,7-7,7.8-7,7.8S100.1,81.5,99.4,70.2z"/>
		</g>
	</g>
	<linearGradient id="SVGID_24_" gradientUnits="userSpaceOnUse" x1="33.3841" y1="63.221" x2="64.937" y2="73.2732">
		<stop  offset="0" style="stop-color:#F6F6F6"/>
		<stop  offset="1" style="stop-color:#000000"/>
	</linearGradient>
	<path class="st30" d="M71.3,64.3c-8.8-21.8-7.7-47.8-7.7-47.8h-4.1h0h-4.1c0,0,1.1,26-7.7,47.8c-4.4,10.9-1.4,59.2-1.4,59.2
		s1.2,1.3,13.2,1.3c11.9,0,13.2-1.3,13.2-1.3S75.7,75.2,71.3,64.3z"/>
	<linearGradient id="SVGID_25_" gradientUnits="userSpaceOnUse" x1="43.5498" y1="37.771" x2="50.5306" y2="57.5964">
		<stop  offset="0" style="stop-color:#FFFFFF"/>
		<stop  offset="1" style="stop-color:#000000"/>
	</linearGradient>
	<path class="st31" d="M59.5,124.2c-9,0-11.8-0.8-12.5-1.1c-0.3-4.6-2.7-48.4,1.4-58.5c7.9-19.6,7.9-42.8,7.8-47.3h3.4h3.4
		c-0.1,4.5-0.2,27.7,7.8,47.3c4.1,10.1,1.6,53.8,1.4,58.5C71.3,123.4,68.5,124.2,59.5,124.2L59.5,124.2z"/>
	<linearGradient id="SVGID_26_" gradientUnits="userSpaceOnUse" x1="43.5498" y1="37.771" x2="50.5306" y2="57.5964">
		<stop  offset="0" style="stop-color:#FFA600"/>
		<stop  offset="1" style="stop-color:#FFFF6B"/>
	</linearGradient>
	<path class="st32" d="M59.5,124.2c-9,0-11.8-0.8-12.5-1.1c-0.3-4.6-2.7-48.4,1.4-58.5c7.9-19.6,7.9-42.8,7.8-47.3h3.4h3.4
		c-0.1,4.5-0.2,27.7,7.8,47.3c4.1,10.1,1.6,53.8,1.4,58.5C71.3,123.4,68.5,124.2,59.5,124.2L59.5,124.2z"/>
	<linearGradient id="SVGID_27_" gradientUnits="userSpaceOnUse" x1="46.0423" y1="82.7431" x2="73.0085" y2="82.7431">
		<stop  offset="0.1694" style="stop-color:#FEF6A6"/>
		<stop  offset="0.3279" style="stop-color:#FCD855"/>
		<stop  offset="0.5138" style="stop-color:#FFDC1C"/>
		<stop  offset="0.8798" style="stop-color:#D99000"/>
	</linearGradient>
	<path class="st33" d="M48.4,64.6c-4.1,10.1-1.6,53.9-1.4,58.5c0.7,0.3,3.5,1.1,12.5,1.1c9,0,11.8-0.8,12.5-1.1
		c0.3-4.7,2.7-48.4-1.4-58.5c-3.1-7.6-5-15.8-6.1-23.3H54.5C53.3,48.7,51.5,56.9,48.4,64.6z"/>
	<path class="st34" d="M71.3,64.3c-8.8-21.8-7.7-47.8-7.7-47.8h-2.5c0.2,9.8,1.5,29.6,8.3,47c3.8,9.7,2.5,46.4,1.8,60.5
		c1.2-0.3,1.4-0.5,1.4-0.5S75.7,75.2,71.3,64.3z"/>
	<linearGradient id="SVGID_28_" gradientUnits="userSpaceOnUse" x1="68.1134" y1="26.0334" x2="47.3713" y2="26.6435">
		<stop  offset="5.674027e-02" style="stop-color:#000000"/>
		<stop  offset="0.6641" style="stop-color:#888888"/>
		<stop  offset="1" style="stop-color:#D9D9D9"/>
	</linearGradient>
	<path class="st35" d="M59.5,36.6c-4.1,0-5-0.3-5-0.9l1-18.5c0-0.6,0.4-1.1,1-1.1h2.1c0.6,0,1.1,0,1.1,0c0,0,0.5,0,1.1,0h2.1
		c0.6,0,1,0.5,1,1.1l1,18.5C64.8,36.3,63.6,36.6,59.5,36.6z"/>
	<linearGradient id="SVGID_29_" gradientUnits="userSpaceOnUse" x1="30.4219" y1="20.0923" x2="79.5661" y2="20.0923">
		<stop  offset="0.2183" style="stop-color:#000000"/>
		<stop  offset="0.7008" style="stop-color:#888888"/>
		<stop  offset="1" style="stop-color:#D9D9D9"/>
	</linearGradient>
	<path class="st36" d="M54.3,21c0,0.6,0.4,1,1,1h8.6c0.6,0,1-0.5,1-1v-1.8c0-0.6-0.4-1-1-1h-8.6c-0.6,0-1,0.5-1,1V21z"/>
	<path class="st37" d="M57.7,22h0.8c0-1.5,0-2.8,0-3.8h-0.8C57.7,19.2,57.7,20.4,57.7,22z"/>
	<path class="st37" d="M49.5,123.5c0,0-3-48.4,1.4-59.2C57.2,48.8,58.4,31,58.6,22h-0.8c-0.2,9-1.4,26.8-7.7,42.3
		c-4.4,10.9-1.4,59.2-1.4,59.2s1.2,1.3,13.2,1.3c0.1,0,0.3,0,0.4,0C50.7,124.9,49.5,123.5,49.5,123.5z M58.6,18.2c0-1.3,0-2.1,0-2.1
		h-0.8c0,0,0,0.8,0,2.1H58.6z"/>
	<path class="st37" d="M53.2,121.8c0,0-2.5-45.6,1.9-56.5c6.3-15.5,3.6-34,3.8-43H58c-0.2,9-2.3,26.8-8.6,42.3
		c-4.4,10.9-1.6,59-1.6,59s2.3,1.6,14.3,1.6c0.1,0,2.5-0.1,2.7-0.1C53.3,125.2,53.2,121.8,53.2,121.8z M58.9,18.6c0-1.3,0-2.1,0-2.1
		H58c0,0,0,0.8,0,2.1H58.9z"/>
	<linearGradient id="SVGID_30_" gradientUnits="userSpaceOnUse" x1="44.9397" y1="88.2293" x2="74.1104" y2="88.2293">
		<stop  offset="0" style="stop-color:#DBC59E"/>
		<stop  offset="8.734350e-02" style="stop-color:#FFFFFF"/>
		<stop  offset="0.3443" style="stop-color:#FFFFD3"/>
		<stop  offset="0.5138" style="stop-color:#DBC59E"/>
		<stop  offset="0.6882" style="stop-color:#D5C29E"/>
		<stop  offset="0.8871" style="stop-color:#FFFFE9"/>
		<stop  offset="1" style="stop-color:#DBC59E"/>
	</linearGradient>
	<path class="st38" d="M74,100.8c0.2-8.8,0.1-18.4-0.4-25.9c-4.5,0.5-9.2,0.8-14.1,0.8c-4.8,0-9.5-0.3-14.1-0.8
		c-0.6,7.5-0.6,17.2-0.4,25.9c4.7,0.5,9.5,0.8,14.5,0.8C64.5,101.6,69.4,101.3,74,100.8z"/>
	<linearGradient id="SVGID_31_" gradientUnits="userSpaceOnUse" x1="45.3826" y1="76.1561" x2="73.6979" y2="76.1561">
		<stop  offset="0" style="stop-color:#E3D15D"/>
		<stop  offset="0.1304" style="stop-color:#FFFFAC"/>
		<stop  offset="0.3443" style="stop-color:#FFFFD3"/>
		<stop  offset="0.5085" style="stop-color:#DBC53D"/>
		<stop  offset="0.8871" style="stop-color:#FFFFE9"/>
		<stop  offset="1" style="stop-color:#D8C370"/>
	</linearGradient>
	<path class="st39" d="M45.5,74.8c0,0,19.9,1.6,28.1,0l0.1,1.7c0,0-14.1,2.2-28.3,0L45.5,74.8z"/>
	<linearGradient id="SVGID_32_" gradientUnits="userSpaceOnUse" x1="44.9367" y1="100.459" x2="74.0996" y2="100.459">
		<stop  offset="0" style="stop-color:#E3D15D"/>
		<stop  offset="0.1304" style="stop-color:#FFFFAC"/>
		<stop  offset="0.3443" style="stop-color:#FFFFD3"/>
		<stop  offset="0.5085" style="stop-color:#DBC53D"/>
		<stop  offset="0.8871" style="stop-color:#FFFFE9"/>
		<stop  offset="1" style="stop-color:#D8C370"/>
	</linearGradient>
	<path class="st40" d="M45,99.2c0,0,17.9,2.7,29.1-0.1l-0.1,1.8c0,0-14.4,2.2-29.1,0L45,99.2z"/>
	<linearGradient id="SVGID_33_" gradientUnits="userSpaceOnUse" x1="59.5404" y1="117.6983" x2="59.5404" y2="123.094">
		<stop  offset="0" style="stop-color:#FFFF49"/>
		<stop  offset="1.247662e-02" style="stop-color:#FAFA47"/>
		<stop  offset="0.1765" style="stop-color:#B9B935"/>
		<stop  offset="0.338" style="stop-color:#808025"/>
		<stop  offset="0.4929" style="stop-color:#525218"/>
		<stop  offset="0.64" style="stop-color:#2F2F0D"/>
		<stop  offset="0.7774" style="stop-color:#151506"/>
		<stop  offset="0.9013" style="stop-color:#050502"/>
		<stop  offset="1" style="stop-color:#000000"/>
	</linearGradient>
	<path class="st41" d="M46.8,121.4c0,0,12-9,25.6-0.3v2.4c0,0-16.2,2.4-25.3-0.4L46.8,121.4z"/>
</g>
</svg>
